<svg width="49" height="50" viewBox="0 0 49 50" fill="none" xmlns="http://www.w3.org/2000/svg">
<g clip-path="url(#clip0_4_559)">
<g clip-path="url(#clip1_4_559)">
<mask id="mask0_4_559" style="mask-type:alpha" maskUnits="userSpaceOnUse" x="5" y="6" width="39" height="44">
<path d="M28.9546 32.252V35.5357H29.697C37.0775 35.5357 43.0606 41.2921 43.0606 48.3929V50H5.93941V48.3929C5.93941 41.2921 11.9225 35.5357 19.303 35.5357H20.0455V32.252C16.8461 30.7897 14.5464 27.8013 14.1627 24.2645C13.0816 24.1175 12.25 23.2236 12.25 22.1429V19.6429C12.25 18.5811 13.0527 17.6997 14.1061 17.5296V16.4286C14.1061 10.9057 18.7596 6.42859 24.5 6.42859C30.2404 6.42859 34.894 10.9057 34.894 16.4286V17.5296C35.9473 17.6997 36.75 18.5811 36.75 19.6429V22.1429C36.75 23.2236 35.9184 24.1175 34.8373 24.2645C34.4537 27.8013 32.1539 30.7897 28.9546 32.252Z" fill="white"/>
</mask>
<g mask="url(#mask0_4_559)">
<path d="M28.9546 32.252V35.5357H29.697C37.0775 35.5357 43.0606 41.2921 43.0606 48.3929V50H5.93941V48.3929C5.93941 41.2921 11.9225 35.5357 19.303 35.5357H20.0455V32.252C16.8461 30.7897 14.5464 27.8013 14.1627 24.2645C13.0816 24.1175 12.25 23.2236 12.25 22.1429V19.6429C12.25 18.5811 13.0527 17.6997 14.1061 17.5296V16.4286C14.1061 10.9057 18.7596 6.42859 24.5 6.42859C30.2404 6.42859 34.894 10.9057 34.894 16.4286V17.5296C35.9473 17.6997 36.75 18.5811 36.75 19.6429V22.1429C36.75 23.2236 35.9184 24.1175 34.8373 24.2645C34.4537 27.8013 32.1539 30.7897 28.9546 32.252Z" fill="#D0C6AC"/>
<path d="M54.9394 6.42859H5.93941V56.4286H54.9394V6.42859Z" fill="#EDB98A"/>
<path fill-rule="evenodd" clip-rule="evenodd" d="M34.8939 20.5358V24.6429C34.8939 30.1658 30.2404 34.6429 24.5 34.6429C18.7596 34.6429 14.1061 30.1658 14.1061 24.6429V20.5358V23.2143C14.1061 28.7372 18.7596 33.2143 24.5 33.2143C30.2404 33.2143 34.8939 28.7372 34.8939 23.2143V20.5358Z" fill="black" fill-opacity="0.1"/>
</g>
<mask id="mask1_4_559" style="mask-type:alpha" maskUnits="userSpaceOnUse" x="5" y="35" width="39" height="15">
<path fill-rule="evenodd" clip-rule="evenodd" d="M30.7408 35.5835C37.6335 36.0959 43.0606 41.6392 43.0606 48.402V50H5.93941V48.402C5.93941 41.5776 11.4659 35.995 18.4479 35.5708C18.3999 35.7631 18.375 35.9601 18.375 36.1607C18.375 38.281 21.1588 40 24.5928 40C28.0268 40 30.8106 38.281 30.8106 36.1607C30.8106 35.9645 30.7868 35.7718 30.7408 35.5835L30.7408 35.5835Z" fill="white"/>
</mask>
<g mask="url(#mask1_4_559)">
<path fill-rule="evenodd" clip-rule="evenodd" d="M30.7408 35.5835C37.6335 36.0959 43.0606 41.6392 43.0606 48.402V50H5.93941V48.402C5.93941 41.5776 11.4659 35.995 18.4479 35.5708C18.3999 35.7631 18.375 35.9601 18.375 36.1607C18.375 38.281 21.1588 40 24.5928 40C28.0268 40 30.8106 38.281 30.8106 36.1607C30.8106 35.9645 30.7868 35.7718 30.7408 35.5835L30.7408 35.5835Z" fill="#E6E6E6"/>
<path d="M49 30.3572H0V50H49V30.3572Z" fill="#25557C"/>
<path fill-rule="evenodd" clip-rule="evenodd" d="M26.5293 45.2484C25.7716 45.4948 24.9422 45.8419 24.5052 46.5116C24.1623 47.037 24.1393 46.4303 23.6605 46.6174C23.1952 46.7994 23.3225 47.5502 23.1535 47.9213C23.022 47.7085 22.9598 47.4719 22.7942 47.2777C22.923 47.1981 23.0422 47.0913 23.131 46.9697C23.16 46.9128 22.2415 47.032 22.1888 47.0464C21.9269 47.1182 21.6804 47.1842 21.4301 47.3018C21.4963 47.2095 21.5612 47.1166 21.625 47.0229C21.6826 46.9386 21.7392 46.8536 21.7947 46.768C21.8332 46.6466 21.9018 46.6462 22.0004 46.7669C22.1394 46.7734 22.219 46.8307 22.3645 46.7986C22.9056 46.6795 23.0779 45.6873 22.4109 45.7295C22.704 45.2171 22.9641 44.6968 23.2003 44.1577C23.2936 44.9239 24.3288 44.66 24.633 44.2513C25.0303 43.7177 24.521 42.7046 23.8009 42.8029C23.9087 42.5572 24.0181 42.3096 24.107 42.0568C24.3098 42.3444 24.6642 42.4837 24.9494 42.674C25.2483 42.8735 25.5012 43.1097 25.722 43.3894C26.165 43.9502 26.426 44.6407 26.8755 45.1845C26.7572 45.1906 26.6418 45.2119 26.5293 45.2484ZM28.2008 44.4648C28.0834 43.4367 27.245 42.3932 26.4488 41.7547C25.9756 41.3753 24.548 40.436 23.979 41.1584C24.4378 41.3497 24.944 41.3958 25.3988 41.6028C26.0151 41.8836 26.498 42.3455 26.915 42.8627C27.4973 43.5849 28.3943 45.056 27.003 45.4316C27.0991 45.3712 27.1548 45.305 27.2309 45.1979C27.044 45.1564 27.1195 44.8627 27.0538 44.6709C26.9773 44.4475 26.8292 44.2304 26.704 44.0311C26.5053 43.7149 26.287 43.4001 26.0537 43.1078C25.7422 42.7175 25.3696 42.4102 24.9443 42.1443C24.7761 42.0392 24.6149 41.9459 24.4216 41.8916C24.1711 41.8212 24.2531 41.907 24.1846 41.6869C24.1416 41.5489 24.1803 41.3721 24.139 41.224C23.7728 41.5202 23.6536 41.9481 23.4895 42.3636C23.3001 42.8429 23.0955 43.3163 22.8962 43.7916C22.407 44.9585 21.7763 46.005 21.0603 47.05C20.9357 47.232 20.6584 47.5767 20.858 47.7953C21.0364 47.9908 21.2906 47.8499 21.4865 47.7705C21.7531 47.6626 22.1148 47.384 22.4025 47.53C22.7733 47.7182 22.5981 48.42 23.1846 48.392C23.7625 48.3644 23.6537 47.4492 23.8392 47.0852C24.2683 47.3862 24.6142 47.1995 24.8747 46.7976C25.1766 46.3317 25.5754 46.1446 26.0837 45.9159C26.2915 45.8223 26.6468 45.5696 26.8633 45.5382C27.0424 45.5123 27.2146 45.6959 27.4541 45.6876C28.0291 45.6674 28.2692 44.9281 28.2008 44.4648Z" fill="white"/>
<path fill-rule="evenodd" clip-rule="evenodd" d="M24.2285 44.9703C23.7784 44.8908 23.1507 44.9571 23.1095 45.5334C23.0842 45.8866 23.3711 46.2206 23.6815 46.3663C24.6322 46.8125 25.3721 45.1719 24.2285 44.9703Z" fill="white"/>
<path fill-rule="evenodd" clip-rule="evenodd" d="M26.0473 44.3138C25.9265 44.1878 25.7311 44.0925 25.5506 44.1367C25.6084 44.0983 25.6562 44.0293 25.7111 43.9868C25.1253 43.5786 24.7571 44.608 25.09 45.0132C25.5944 45.6275 26.5817 44.8764 26.0473 44.3138Z" fill="white"/>
</g>
<mask id="mask2_4_559" style="mask-type:alpha" maskUnits="userSpaceOnUse" x="20" y="26" width="9" height="4">
<path fill-rule="evenodd" clip-rule="evenodd" d="M20.9953 26.63C21.1917 28.325 22.6859 29.6429 24.5 29.6429C26.3197 29.6429 27.8175 28.3168 28.0064 26.6143C28.0216 26.4773 27.8625 26.25 27.6632 26.25C24.8988 26.25 22.7809 26.25 21.3608 26.25C21.1603 26.25 20.9757 26.4604 20.9953 26.63Z" fill="white"/>
</mask>
<g mask="url(#mask2_4_559)">
<path fill-rule="evenodd" clip-rule="evenodd" d="M20.9953 26.63C21.1917 28.325 22.6859 29.6429 24.5 29.6429C26.3197 29.6429 27.8175 28.3168 28.0064 26.6143C28.0216 26.4773 27.8625 26.25 27.6632 26.25C24.8988 26.25 22.7809 26.25 21.3608 26.25C21.1603 26.25 20.9757 26.4604 20.9953 26.63Z" fill="black" fill-opacity="0.7"/>
<path d="M26.5416 24.2856H22.6439C22.1313 24.2856 21.7159 24.6854 21.7159 25.1785V26.2499C21.7159 26.743 22.1313 27.1428 22.6439 27.1428H26.5416C27.0541 27.1428 27.4696 26.743 27.4696 26.2499V25.1785C27.4696 24.6854 27.0541 24.2856 26.5416 24.2856Z" fill="white"/>
<path d="M23.5719 32.1428C24.6995 32.1428 25.6136 31.2634 25.6136 30.1785C25.6136 29.0937 24.6995 28.2142 23.5719 28.2142C22.4443 28.2142 21.5303 29.0937 21.5303 30.1785C21.5303 31.2634 22.4443 32.1428 23.5719 32.1428Z" fill="#FF4F6D"/>
<path d="M25.428 32.1428C26.5556 32.1428 27.4696 31.2634 27.4696 30.1785C27.4696 29.0937 26.5556 28.2142 25.428 28.2142C24.3004 28.2142 23.3863 29.0937 23.3863 30.1785C23.3863 31.2634 24.3004 32.1428 25.428 32.1428Z" fill="#FF4F6D"/>
</g>
<path fill-rule="evenodd" clip-rule="evenodd" d="M22.2727 23.2142C22.2727 24.0032 23.2699 24.6428 24.5 24.6428C25.7301 24.6428 26.7273 24.0032 26.7273 23.2142" fill="black" fill-opacity="0.16"/>
<mask id="mask3_4_559" style="mask-type:alpha" maskUnits="userSpaceOnUse" x="17" y="18" width="6" height="4">
<path fill-rule="evenodd" clip-rule="evenodd" d="M19.6742 20.9014C21.4579 20.9014 22.2727 21.6963 22.2727 20.4574C22.2727 19.2186 21.1093 18.3928 19.6742 18.3928C18.2391 18.3928 17.0758 19.2186 17.0758 20.4574C17.0758 21.6963 17.8906 20.9014 19.6742 20.9014Z" fill="white"/>
</mask>
<g mask="url(#mask3_4_559)">
<path fill-rule="evenodd" clip-rule="evenodd" d="M19.6742 20.9014C21.4579 20.9014 22.2727 21.6963 22.2727 20.4574C22.2727 19.2186 21.1093 18.3928 19.6742 18.3928C18.2391 18.3928 17.0758 19.2186 17.0758 20.4574C17.0758 21.6963 17.8906 20.9014 19.6742 20.9014Z" fill="white"/>
<path d="M19.6742 21.25C20.2893 21.25 20.7879 20.7703 20.7879 20.1786C20.7879 19.5869 20.2893 19.1072 19.6742 19.1072C19.0592 19.1072 18.5606 19.5869 18.5606 20.1786C18.5606 20.7703 19.0592 21.25 19.6742 21.25Z" fill="black" fill-opacity="0.7"/>
</g>
<mask id="mask4_4_559" style="mask-type:alpha" maskUnits="userSpaceOnUse" x="26" y="18" width="6" height="4">
<path fill-rule="evenodd" clip-rule="evenodd" d="M29.3258 20.9014C31.1094 20.9014 31.9242 21.6963 31.9242 20.4574C31.9242 19.2186 30.7609 18.3928 29.3258 18.3928C27.8907 18.3928 26.7273 19.2186 26.7273 20.4574C26.7273 21.6963 27.5421 20.9014 29.3258 20.9014Z" fill="white"/>
</mask>
<g mask="url(#mask4_4_559)">
<path fill-rule="evenodd" clip-rule="evenodd" d="M29.3258 20.9014C31.1094 20.9014 31.9242 21.6963 31.9242 20.4574C31.9242 19.2186 30.7609 18.3928 29.3258 18.3928C27.8907 18.3928 26.7273 19.2186 26.7273 20.4574C26.7273 21.6963 27.5421 20.9014 29.3258 20.9014Z" fill="white"/>
<path d="M29.3257 21.25C29.9408 21.25 30.4394 20.7703 30.4394 20.1786C30.4394 19.5869 29.9408 19.1072 29.3257 19.1072C28.7107 19.1072 28.2121 19.5869 28.2121 20.1786C28.2121 20.7703 28.7107 21.25 29.3257 21.25Z" fill="black" fill-opacity="0.7"/>
</g>
<path fill-rule="evenodd" clip-rule="evenodd" d="M21.2815 16.6233C20.3539 16.6879 19.4398 16.6385 18.5127 16.6015C17.8019 16.5732 17.0803 16.4798 16.4017 16.7821C16.2717 16.84 15.5609 17.1891 15.5774 17.3801C15.5906 17.5329 16.3079 17.7715 16.437 17.8151C17.118 18.0455 17.7698 17.9751 18.4701 17.9347C19.3291 17.8852 20.1842 17.9216 21.0428 17.8967C21.621 17.8801 22.5122 17.7859 22.7979 17.1114C22.884 16.9083 22.8174 16.5019 22.7312 16.2797C22.6968 16.1912 22.5974 16.1579 22.5223 16.2089C22.2533 16.3915 21.7314 16.592 21.2815 16.6233Z" fill="black" fill-opacity="0.6"/>
<path fill-rule="evenodd" clip-rule="evenodd" d="M27.7185 16.6233C28.6461 16.6879 29.5601 16.6385 30.4872 16.6015C31.1981 16.5732 31.9196 16.4798 32.5983 16.7821C32.7282 16.84 33.4391 17.1891 33.4225 17.3801C33.4094 17.5329 32.692 17.7715 32.5629 17.8151C31.882 18.0455 31.2301 17.9751 30.5298 17.9347C29.6709 17.8852 28.8158 17.9216 27.9572 17.8967C27.379 17.8801 26.4878 17.7859 26.202 17.1114C26.116 16.9083 26.1825 16.5019 26.2688 16.2797C26.3032 16.1912 26.4025 16.1579 26.4777 16.2089C26.7467 16.3915 27.2686 16.592 27.7185 16.6233Z" fill="black" fill-opacity="0.6"/>
<mask id="mask5_4_559" style="mask-type:alpha" maskUnits="userSpaceOnUse" x="0" y="0" width="49" height="50">
<path d="M49 0H0V50H49V0Z" fill="white"/>
</mask>
<g mask="url(#mask5_4_559)">
<mask id="mask6_4_559" style="mask-type:alpha" maskUnits="userSpaceOnUse" x="13" y="17" width="23" height="17">
<path fill-rule="evenodd" clip-rule="evenodd" d="M27.7348 30.3872C27.2683 30.7969 26.7713 30.9811 26.1432 30.8523C26.0351 30.8301 25.5944 30.0419 24.5 30.0419C23.4056 30.0419 22.9649 30.8301 22.8568 30.8523C22.2286 30.9811 21.7317 30.7969 21.2651 30.3872C20.3881 29.6171 19.6588 28.555 20.097 27.3963C20.3254 26.7923 20.6969 26.1292 21.3727 25.9368C22.0943 25.7313 23.1074 25.9364 23.8346 25.7961C24.0702 25.7506 24.3275 25.6698 24.5 25.5357C24.6724 25.6698 24.9299 25.7506 25.1653 25.7961C25.8926 25.9364 26.9057 25.7313 27.6273 25.9368C28.3031 26.1292 28.6745 26.7923 28.903 27.3963C29.3412 28.555 28.6119 29.6171 27.7348 30.3872ZM34.909 17.5C34.276 19 34.5205 20.8675 34.4033 22.4421C34.3082 23.722 34.0285 25.6403 32.8472 26.4669C32.2432 26.8896 31.1437 27.6 30.3544 27.4018C29.811 27.2654 29.7531 25.7661 29.0391 25.2048C28.2292 24.5683 27.2178 24.2886 26.1981 24.3318C25.7581 24.3504 24.8683 24.346 24.5 24.6715C24.1317 24.346 23.2419 24.3504 22.8019 24.3318C21.7822 24.2886 20.7708 24.5683 19.9609 25.2048C19.2469 25.7661 19.189 27.2654 18.6457 27.4018C17.8564 27.6 16.7569 26.8896 16.1527 26.4669C14.9714 25.6403 14.6919 23.722 14.5966 22.4421C14.4795 20.8675 14.724 19 14.091 17.5C13.7831 17.5 13.9862 20.3802 13.9862 20.3802V24.0152C13.992 26.7452 15.7645 30.8313 19.6943 32.3916C20.6554 32.7732 22.8324 33.3929 24.5 33.3929C26.1676 33.3929 28.3446 32.8322 29.3057 32.4506C33.2355 30.8903 35.0079 26.7452 35.0139 24.0152V20.3802C35.0139 20.3802 35.2169 17.5 34.909 17.5Z" fill="white"/>
</mask>
<g mask="url(#mask6_4_559)">
<path fill-rule="evenodd" clip-rule="evenodd" d="M27.7348 30.3872C27.2683 30.7969 26.7713 30.9811 26.1432 30.8523C26.0351 30.8301 25.5944 30.0419 24.5 30.0419C23.4056 30.0419 22.9649 30.8301 22.8568 30.8523C22.2286 30.9811 21.7317 30.7969 21.2651 30.3872C20.3881 29.6171 19.6588 28.555 20.097 27.3963C20.3254 26.7923 20.6969 26.1292 21.3727 25.9368C22.0943 25.7313 23.1074 25.9364 23.8346 25.7961C24.0702 25.7506 24.3275 25.6698 24.5 25.5357C24.6724 25.6698 24.9299 25.7506 25.1653 25.7961C25.8926 25.9364 26.9057 25.7313 27.6273 25.9368C28.3031 26.1292 28.6745 26.7923 28.903 27.3963C29.3412 28.555 28.6119 29.6171 27.7348 30.3872ZM34.909 17.5C34.276 19 34.5205 20.8675 34.4033 22.4421C34.3082 23.722 34.0285 25.6403 32.8472 26.4669C32.2432 26.8896 31.1437 27.6 30.3544 27.4018C29.811 27.2654 29.7531 25.7661 29.0391 25.2048C28.2292 24.5683 27.2178 24.2886 26.1981 24.3318C25.7581 24.3504 24.8683 24.346 24.5 24.6715C24.1317 24.346 23.2419 24.3504 22.8019 24.3318C21.7822 24.2886 20.7708 24.5683 19.9609 25.2048C19.2469 25.7661 19.189 27.2654 18.6457 27.4018C17.8564 27.6 16.7569 26.8896 16.1527 26.4669C14.9714 25.6403 14.6919 23.722 14.5966 22.4421C14.4795 20.8675 14.724 19 14.091 17.5C13.7831 17.5 13.9862 20.3802 13.9862 20.3802V24.0152C13.992 26.7452 15.7645 30.8313 19.6943 32.3916C20.6554 32.7732 22.8324 33.3929 24.5 33.3929C26.1676 33.3929 28.3446 32.8322 29.3057 32.4506C33.2355 30.8903 35.0079 26.7452 35.0139 24.0152V20.3802C35.0139 20.3802 35.2169 17.5 34.909 17.5Z" fill="#331B0C"/>
<path d="M51.9697 12.8572H2.9697V56.4286H51.9697V12.8572Z" fill="#724133"/>
</g>
<mask id="mask7_4_559" style="mask-type:alpha" maskUnits="userSpaceOnUse" x="2" y="2" width="46" height="48">
<path fill-rule="evenodd" clip-rule="evenodd" d="M18.6939 35.5488C18.8958 35.5401 19.0989 35.5357 19.303 35.5357H20.0454V32.2519C17.8606 31.2533 16.0953 29.543 15.0732 27.4324C14.5602 25.8952 14.5907 24.2298 14.4774 22.6475C14.328 20.5617 14.4566 18.5264 14.9481 16.4727C15.3916 14.62 16.0291 13.6262 17.4772 12.1415C18.2863 11.3119 19.5012 11.2639 20.7104 10.9695C21.9342 10.6713 23.0512 10.2176 23.8165 9.364C25.5024 11.2231 30.0072 10.5541 31.6559 12.5802C33.6607 15.0441 33.6831 16.6339 33.919 19.4806C34.0958 21.6148 33.8209 25.4742 33.7438 27.791C32.7011 29.7366 31.0142 31.3105 28.9545 32.2519V35.5357H29.6969C30.9286 35.5357 32.1213 35.696 33.2538 35.996C32.8732 36.5628 32.4196 37.0994 31.945 37.5984C31.2339 38.3461 30.5193 39.1197 29.7176 39.8067C28.8006 40.5927 27.9233 41.1633 27.3665 42.1428C27.1145 42.5861 26.6729 43.0524 27.1402 43.5387C27.567 43.9828 28.2398 43.8913 28.6965 43.57C29.3716 43.095 29.8728 42.3452 30.495 41.7993C29.8941 42.8378 29.0581 44.3859 29.4873 45.5503C29.6333 45.9462 29.7815 45.9383 30.0072 46.2022C30.3635 46.2099 30.5044 46.365 30.4298 46.6674C30.4632 46.7538 30.4966 46.8401 30.5301 46.9266C30.8003 47.3897 31.3174 47.7142 31.9741 47.4959C34.1197 46.7826 31.6446 43.5741 34.0069 42.6205C34.4296 43.1257 33.8053 44.5452 33.7885 45.1662C33.7678 45.9318 33.8111 47.6684 35.0212 47.8767C36.5982 48.1482 35.9899 46.6987 36.0522 46.0821C36.1245 45.3649 36.5831 44.4192 36.9563 43.7841C36.7293 44.459 36.3051 45.9543 37.479 46.2608C38.8371 46.6154 38.682 45.0848 38.8881 44.4482C38.9306 45.3902 40.1958 47.6178 41.339 45.8583C41.9281 44.9518 41.5263 43.4582 41.4617 42.4916C42.2809 43.3058 42.9354 42.2504 42.9166 41.6647C43.228 42.5134 44.3983 44.8795 45.4354 43.0013C46.066 41.8593 45.3934 40.3254 44.9745 39.2229C46.0777 39.3157 45.8561 38.2878 45.6918 37.7773C45.4492 37.0234 45.5787 36.9128 45.6286 36.1333C47.1599 36.9914 47.1129 34.6631 47.0284 34.092C46.8158 32.6542 45.6533 31.3666 44.7561 30.154C44.1128 29.2842 42.9121 27.7697 43.2641 26.7208C43.6273 27.1615 44.4719 27.1569 44.8077 26.6955C45.092 26.3047 44.7907 25.6605 44.6535 25.2701C44.2784 24.2022 43.5289 23.5122 42.8512 22.5949C41.5319 20.8091 41.7217 18.4641 41.5997 16.4676C41.4476 13.9768 40.8918 11.5247 38.5408 9.71277C37.2812 8.74199 35.746 7.9425 34.5744 6.91247C34.2549 6.63159 34.1198 6.28361 33.8199 6.01285C33.4832 5.70898 33.3261 5.78094 33.0481 5.34837C32.5528 4.57793 31.9711 3.85655 30.7742 3.82037C29.9911 3.79681 29.0007 4.43264 28.2949 4.33971C27.7155 4.26354 27.3494 3.46858 26.8739 3.20178C26.1378 2.7888 25.6241 2.94915 24.8374 3.18835C23.6664 3.54434 22.9201 3.66843 21.7276 3.2429C20.916 2.95328 20.1502 2.34878 19.192 2.56369C18.4404 2.73238 18.1046 3.316 17.662 3.7633C17.2051 4.22509 17.4259 4.07243 16.7581 4.17499C16.075 4.27997 15.5356 4.37525 15.0174 4.80563C14.1799 5.50127 14.7601 6.58327 14.098 7.19651C13.7407 7.52757 12.9965 7.68526 12.5826 8.02757C12.1309 8.40121 11.7614 8.85532 11.4229 9.29736C10.7638 10.1585 10.3137 11.097 9.83046 12.026C8.93147 13.7548 8.13003 15.5387 7.78842 17.3961C7.61298 18.3507 7.31729 19.2847 7.1366 20.2375C6.99728 20.9722 7.0567 21.777 6.78461 22.4904C6.46177 23.3368 5.68979 24.1147 5.27162 24.9471C4.71705 26.0512 4.34457 27.1105 4.22664 28.2991C4.11082 29.4677 4.43315 30.4975 4.5753 31.6432C4.65762 32.3069 4.51527 32.3823 4.04081 33.0087C3.6757 33.4908 3.30585 33.9681 3.07109 34.5048C2.63274 35.5074 2.65705 36.4829 3.41975 37.3643C3.94315 37.9692 5.7025 38.6023 5.55844 37.254C5.49155 36.6275 4.67286 36.3441 4.82923 35.6254C4.93748 35.1277 5.46481 34.7833 6.10494 34.6294C6.55711 34.5208 6.77976 34.5255 6.98376 35.0025C7.16868 35.4349 6.92353 36.3788 6.86673 36.8331C6.84393 37.0157 6.81023 37.1758 6.78733 37.3449C6.62622 38.5368 6.59656 39.6334 5.9184 40.7279C5.50184 41.4004 4.68678 42.348 5.61614 42.9961C6.351 43.5087 7.61894 43.1964 8.19187 42.66C8.79628 43.3792 8.6619 44.1642 8.43581 44.9581C8.29548 45.4509 7.91171 46.1727 8.51581 46.5711C9.3339 47.1107 10.6693 46.2609 11.2827 45.832C11.6373 46.594 11.9701 49.3724 13.3681 47.7162C13.7761 47.2331 14.4553 46.7619 14.5846 46.1923C14.7992 45.2476 14.6452 44.2533 14.734 43.299C15.1802 44.5486 15.4834 45.0467 15.7565 46.3294C15.9208 47.101 15.9851 49.69 17.6449 49.349C18.922 49.0867 18.1053 47.4697 17.9421 46.8106C17.6297 45.5483 17.4789 45.0138 17.177 43.7499C17.6471 44.5759 18.0579 45.4234 18.5096 46.256C18.9533 47.0738 20.9371 48.7608 21.5174 48.0506C22.0978 47.3404 20.683 46.3283 20.3612 45.4684C19.6914 43.6785 18.8798 41.8961 18.6875 40.0207C18.5949 39.1191 18.7685 38.2864 18.8445 37.3952C18.8965 36.7863 18.8183 36.1626 18.6939 35.5488Z" fill="white"/>
</mask>
<g mask="url(#mask7_4_559)">
<path fill-rule="evenodd" clip-rule="evenodd" d="M18.6939 35.5488C18.8958 35.5401 19.0989 35.5357 19.303 35.5357H20.0454V32.2519C17.8606 31.2533 16.0953 29.543 15.0732 27.4324C14.5602 25.8952 14.5907 24.2298 14.4774 22.6475C14.328 20.5617 14.4566 18.5264 14.9481 16.4727C15.3916 14.62 16.0291 13.6262 17.4772 12.1415C18.2863 11.3119 19.5012 11.2639 20.7104 10.9695C21.9342 10.6713 23.0512 10.2176 23.8165 9.364C25.5024 11.2231 30.0072 10.5541 31.6559 12.5802C33.6607 15.0441 33.6831 16.6339 33.919 19.4806C34.0958 21.6148 33.8209 25.4742 33.7438 27.791C32.7011 29.7366 31.0142 31.3105 28.9545 32.2519V35.5357H29.6969C30.9286 35.5357 32.1213 35.696 33.2538 35.996C32.8732 36.5628 32.4196 37.0994 31.945 37.5984C31.2339 38.3461 30.5193 39.1197 29.7176 39.8067C28.8006 40.5927 27.9233 41.1633 27.3665 42.1428C27.1145 42.5861 26.6729 43.0524 27.1402 43.5387C27.567 43.9828 28.2398 43.8913 28.6965 43.57C29.3716 43.095 29.8728 42.3452 30.495 41.7993C29.8941 42.8378 29.0581 44.3859 29.4873 45.5503C29.6333 45.9462 29.7815 45.9383 30.0072 46.2022C30.3635 46.2099 30.5044 46.365 30.4298 46.6674C30.4632 46.7538 30.4966 46.8401 30.5301 46.9266C30.8003 47.3897 31.3174 47.7142 31.9741 47.4959C34.1197 46.7826 31.6446 43.5741 34.0069 42.6205C34.4296 43.1257 33.8053 44.5452 33.7885 45.1662C33.7678 45.9318 33.8111 47.6684 35.0212 47.8767C36.5982 48.1482 35.9899 46.6987 36.0522 46.0821C36.1245 45.3649 36.5831 44.4192 36.9563 43.7841C36.7293 44.459 36.3051 45.9543 37.479 46.2608C38.8371 46.6154 38.682 45.0848 38.8881 44.4482C38.9306 45.3902 40.1958 47.6178 41.339 45.8583C41.9281 44.9518 41.5263 43.4582 41.4617 42.4916C42.2809 43.3058 42.9354 42.2504 42.9166 41.6647C43.228 42.5134 44.3983 44.8795 45.4354 43.0013C46.066 41.8593 45.3934 40.3254 44.9745 39.2229C46.0777 39.3157 45.8561 38.2878 45.6918 37.7773C45.4492 37.0234 45.5787 36.9128 45.6286 36.1333C47.1599 36.9914 47.1129 34.6631 47.0284 34.092C46.8158 32.6542 45.6533 31.3666 44.7561 30.154C44.1128 29.2842 42.9121 27.7697 43.2641 26.7208C43.6273 27.1615 44.4719 27.1569 44.8077 26.6955C45.092 26.3047 44.7907 25.6605 44.6535 25.2701C44.2784 24.2022 43.5289 23.5122 42.8512 22.5949C41.5319 20.8091 41.7217 18.4641 41.5997 16.4676C41.4476 13.9768 40.8918 11.5247 38.5408 9.71277C37.2812 8.74199 35.746 7.9425 34.5744 6.91247C34.2549 6.63159 34.1198 6.28361 33.8199 6.01285C33.4832 5.70898 33.3261 5.78094 33.0481 5.34837C32.5528 4.57793 31.9711 3.85655 30.7742 3.82037C29.9911 3.79681 29.0007 4.43264 28.2949 4.33971C27.7155 4.26354 27.3494 3.46858 26.8739 3.20178C26.1378 2.7888 25.6241 2.94915 24.8374 3.18835C23.6664 3.54434 22.9201 3.66843 21.7276 3.2429C20.916 2.95328 20.1502 2.34878 19.192 2.56369C18.4404 2.73238 18.1046 3.316 17.662 3.7633C17.2051 4.22509 17.4259 4.07243 16.7581 4.17499C16.075 4.27997 15.5356 4.37525 15.0174 4.80563C14.1799 5.50127 14.7601 6.58327 14.098 7.19651C13.7407 7.52757 12.9965 7.68526 12.5826 8.02757C12.1309 8.40121 11.7614 8.85532 11.4229 9.29736C10.7638 10.1585 10.3137 11.097 9.83046 12.026C8.93147 13.7548 8.13003 15.5387 7.78842 17.3961C7.61298 18.3507 7.31729 19.2847 7.1366 20.2375C6.99728 20.9722 7.0567 21.777 6.78461 22.4904C6.46177 23.3368 5.68979 24.1147 5.27162 24.9471C4.71705 26.0512 4.34457 27.1105 4.22664 28.2991C4.11082 29.4677 4.43315 30.4975 4.5753 31.6432C4.65762 32.3069 4.51527 32.3823 4.04081 33.0087C3.6757 33.4908 3.30585 33.9681 3.07109 34.5048C2.63274 35.5074 2.65705 36.4829 3.41975 37.3643C3.94315 37.9692 5.7025 38.6023 5.55844 37.254C5.49155 36.6275 4.67286 36.3441 4.82923 35.6254C4.93748 35.1277 5.46481 34.7833 6.10494 34.6294C6.55711 34.5208 6.77976 34.5255 6.98376 35.0025C7.16868 35.4349 6.92353 36.3788 6.86673 36.8331C6.84393 37.0157 6.81023 37.1758 6.78733 37.3449C6.62622 38.5368 6.59656 39.6334 5.9184 40.7279C5.50184 41.4004 4.68678 42.348 5.61614 42.9961C6.351 43.5087 7.61894 43.1964 8.19187 42.66C8.79628 43.3792 8.6619 44.1642 8.43581 44.9581C8.29548 45.4509 7.91171 46.1727 8.51581 46.5711C9.3339 47.1107 10.6693 46.2609 11.2827 45.832C11.6373 46.594 11.9701 49.3724 13.3681 47.7162C13.7761 47.2331 14.4553 46.7619 14.5846 46.1923C14.7992 45.2476 14.6452 44.2533 14.734 43.299C15.1802 44.5486 15.4834 45.0467 15.7565 46.3294C15.9208 47.101 15.9851 49.69 17.6449 49.349C18.922 49.0867 18.1053 47.4697 17.9421 46.8106C17.6297 45.5483 17.4789 45.0138 17.177 43.7499C17.6471 44.5759 18.0579 45.4234 18.5096 46.256C18.9533 47.0738 20.9371 48.7608 21.5174 48.0506C22.0978 47.3404 20.683 46.3283 20.3612 45.4684C19.6914 43.6785 18.8798 41.8961 18.6875 40.0207C18.5949 39.1191 18.7685 38.2864 18.8445 37.3952C18.8965 36.7863 18.8183 36.1626 18.6939 35.5488Z" fill="#8D5A5A"/>
<path d="M51.7841 2.5H2.78409V52.5H51.7841V2.5Z" fill="#4A312C"/>
<path fill-rule="evenodd" clip-rule="evenodd" d="M18.6939 35.5489C18.8958 35.5402 19.0989 35.5358 19.303 35.5358H20.0454V32.252C17.8606 31.2534 16.0953 29.5431 15.0732 27.4325C15.1721 27.7287 15.2911 28.0201 15.4353 28.3052C16.5035 30.4182 17.8958 32.3073 18.4655 34.5697C18.5463 34.8906 18.6268 35.2183 18.6939 35.5489ZM33.2538 35.9961C32.1213 35.6961 30.9286 35.5358 29.6969 35.5358H28.9545V32.252C30.9778 31.3273 32.6412 29.7922 33.6878 27.8941C33.6735 28.4287 33.686 28.9605 33.757 29.4743C33.9557 30.9107 34.4997 32.2083 34.2472 33.685C34.109 34.4943 33.7413 35.2699 33.2538 35.9961Z" fill="black" fill-opacity="0.24"/>
<path fill-rule="evenodd" clip-rule="evenodd" d="M11.9457 21.8301C11.9225 21.3975 11.5782 19.9484 12.0065 19.6981C12.4761 19.4235 12.3782 21.0743 12.3831 21.2434C12.3911 21.5179 12.6078 23.5889 12.2109 23.5798C11.8153 23.5706 11.9609 22.1122 11.9457 21.8301ZM13.5112 32.1426C13.5096 32.3236 13.3121 32.3127 13.1712 32.2653C12.9972 32.2068 13.1037 31.8217 13.0945 31.6955C13.0703 31.3635 12.9046 30.3851 13.1577 30.111C13.6635 29.5631 13.5132 31.8875 13.5112 32.1426ZM8.74592 34.4931C9.10397 34.4834 8.77256 27.7374 8.22222 27.7449C7.83573 27.7501 8.47494 34.4996 8.74592 34.4931ZM9.1602 37.9493C8.71519 37.9493 8.79701 39.4604 9.05911 39.5812C9.4563 39.7643 9.65797 37.9493 9.1602 37.9493ZM11.9882 38.5812C11.9922 38.7701 11.7695 38.7731 11.6209 38.714C11.4522 38.647 11.5228 38.0881 11.5162 37.964C11.4952 37.5735 11.1419 36.0583 11.4632 35.7799C11.8296 35.4625 11.8376 35.8109 11.9362 36.0475C12.2264 36.7444 11.9726 37.839 11.9882 38.5812ZM38.0942 24.3452C38.1146 24.6064 38.2925 26.3126 37.9968 26.4427C37.4879 26.6666 37.7071 25.6123 37.7091 25.4761C37.729 24.148 37.5293 22.8311 37.3775 21.5101C37.3486 21.2593 36.8902 19.3271 37.226 19.167C37.7285 18.9275 37.6535 19.568 37.6823 19.7759C37.8918 21.2882 37.9844 22.8258 38.0942 24.3452ZM37.4967 30.2834C37.0266 30.1938 36.7807 31.7287 36.9952 31.8933C37.351 32.1666 37.988 30.3774 37.4967 30.2834ZM37.4469 37.0331C37.2355 36.9926 35.696 39.8424 35.8227 40.0036C36.064 40.3105 38.204 37.1785 37.4469 37.0331ZM33.6564 38.3497C33.3258 38.2065 31.924 40.2696 32.2818 40.4246C32.6063 40.5649 34.0565 38.5224 33.6564 38.3497ZM41.4691 30.6156C41.0698 30.6156 41.0876 32.7266 41.3948 32.8598C41.7124 32.9975 41.9409 30.6156 41.4691 30.6156ZM35.8478 11.2221C35.735 11.0667 34.5161 9.68273 35.3891 9.88047C35.8143 9.97675 36.4003 11.1934 36.5921 11.561C36.7023 11.7721 37.3316 12.7144 36.6648 12.6477C36.4834 12.6296 35.9986 11.4297 35.8478 11.2221ZM31.5619 8.45652C31.4048 8.52452 31.4074 8.58834 31.5697 8.64788C31.7269 8.57988 31.7242 8.51614 31.5619 8.45652ZM15.8913 9.90829C15.5192 10.2374 14.1201 12.1437 13.6407 12.1628C12.7671 12.1976 14.4348 10.5512 14.6239 10.3417C14.7084 10.2478 15.0853 9.78968 15.3147 9.67704C15.5487 9.56206 16.3251 9.52362 15.8913 9.90829ZM10.8123 14.9965C10.4071 14.92 9.72925 16.8295 9.96573 17.06C10.3228 17.4082 11.2664 15.0832 10.8123 14.9965ZM15.4411 36.2486C15.5176 36.4881 16.3007 38.2271 16.1039 38.4559C15.8029 38.8055 15.7166 38.3101 15.6181 38.1046C15.3995 37.6483 14.8315 36.525 14.9228 36.0447C15.0115 35.5789 15.3637 36.0087 15.4411 36.2486ZM13.9179 40.3243C13.4919 40.3243 13.5411 42.0747 13.7947 42.1787C14.1875 42.3398 14.4404 40.3243 13.9179 40.3243ZM43.9498 38.8297C43.9751 38.9375 44.3311 39.8231 43.8268 39.6948C43.5369 39.6211 43.4922 38.8404 43.4182 38.6037C43.19 37.8741 42.4381 36.9675 42.3729 36.2476C42.3098 35.5518 42.7145 35.817 43.0253 36.4063C43.4403 37.1934 43.7516 37.9905 43.9498 38.8297ZM40.293 38.7412C39.8973 38.7395 39.8782 40.665 40.1256 40.7773C40.4716 40.9342 40.7977 38.7412 40.293 38.7412ZM41.4364 22.974C41.73 22.9004 40.8036 20.5944 40.4754 20.6198C39.9753 20.6587 40.9906 23.0846 41.4364 22.974ZM36.4593 32.9905C36.3021 33.0585 36.3049 33.1223 36.4672 33.1819C36.6243 33.1139 36.6217 33.05 36.4593 32.9905ZM31.9643 42.8549C32.1116 42.8549 32.1724 42.6364 31.9548 42.6315C31.811 42.6326 31.735 42.8549 31.9643 42.8549ZM13.6762 32.9694C13.6817 32.6286 13.2179 32.8785 13.2208 33.1661C13.2269 33.74 13.6665 33.4779 13.6762 32.9694ZM12.5319 24.4434C12.3826 24.4434 12.3215 24.6642 12.5413 24.6694C12.6868 24.6684 12.7636 24.4434 12.5319 24.4434ZM8.9808 35.6058C8.96637 35.2592 8.66522 35.6136 8.68207 35.6141C8.73554 35.6153 8.9921 35.8671 8.9808 35.6058ZM9.76276 17.5113C9.3233 17.5113 9.38706 18.5387 9.66753 18.6046C10.1352 18.7146 10.1992 17.5113 9.76276 17.5113ZM12.1039 39.701C11.6797 39.701 11.651 41.0964 11.9438 41.1831C12.3987 41.3178 12.5457 39.701 12.1039 39.701ZM8.62262 40.7022C8.4608 40.772 8.46342 40.8378 8.63049 40.8992C8.79241 40.8293 8.78969 40.7637 8.62262 40.7022ZM40.1754 41.3005C39.7448 41.3005 39.7617 43.0065 40.026 43.1217C40.3955 43.2828 40.6735 41.3005 40.1754 41.3005ZM35.8118 42.886C35.3644 42.7999 35.13 44.2084 35.3386 44.3664C35.6824 44.6269 36.2714 42.9743 35.8118 42.886ZM32.0105 44.1877C31.6398 44.1877 31.7309 44.826 31.9448 44.921C32.3149 45.0854 32.4243 44.1877 32.0105 44.1877ZM18.8352 5.98376C18.525 5.98376 16.5782 6.83094 17.3057 7.08193C17.7505 7.23535 19.6254 5.98376 18.8352 5.98376Z" fill="white" fill-opacity="0.3"/>
</g>
</g>
</g>
</g>
<defs>
<clipPath id="clip0_4_559">
<rect width="49" height="50" fill="white"/>
</clipPath>
<clipPath id="clip1_4_559">
<rect width="49" height="50" fill="white"/>
</clipPath>
</defs>
</svg>
