<svg width="49" height="48" viewBox="0 0 49 48" fill="none" xmlns="http://www.w3.org/2000/svg">
<rect x="0.166626" width="48" height="48" rx="10" fill="url(#paint0_linear_4584_18655)"/>
<path d="M23.6642 24.5H22.5416C22.0584 24.5 21.6666 24.8918 21.6666 25.375V27.125C21.6666 27.6082 22.0584 28 22.5416 28H23.6642" stroke="white" stroke-width="2" stroke-linecap="round" stroke-linejoin="round"/>
<path d="M26.0416 24.5L27.026 28H27.6831L28.6666 24.5" stroke="white" stroke-width="2" stroke-linecap="round" stroke-linejoin="round"/>
<path fill-rule="evenodd" clip-rule="evenodd" d="M19.6666 33H30.1666C31.5473 33 32.6666 31.8807 32.6666 30.5V20.3717C32.6666 19.576 32.3506 18.813 31.7879 18.2503L29.4163 15.8787C28.8537 15.3161 28.0906 15 27.295 15H20.1666C18.7859 15 17.6666 16.1193 17.6666 17.5V31C17.6666 32.1046 18.5621 33 19.6666 33Z" stroke="white" stroke-width="2" stroke-linecap="round" stroke-linejoin="round"/>
<path d="M32.6431 19.9998H29.1666C28.3382 19.9998 27.6666 19.3282 27.6666 18.4998V15.0234" stroke="white" stroke-width="2" stroke-linecap="round" stroke-linejoin="round"/>
<defs>
<linearGradient id="paint0_linear_4584_18655" x1="0.166626" y1="24" x2="48.1666" y2="24" gradientUnits="userSpaceOnUse">
<stop stop-color="#562BFF"/>
<stop offset="1" stop-color="#D490FE"/>
</linearGradient>
</defs>
</svg>
