<svg width="173" height="24" viewBox="0 0 173 24" fill="none" xmlns="http://www.w3.org/2000/svg">
<g clip-path="url(#clip0_4_412)">
<path d="M1.56 23.0397C1.14 23.0397 0.77 22.8957 0.45 22.6077C0.15 22.3197 0 21.9645 0 21.5421V2.04448C0 1.62208 0.15 1.26688 0.45 0.978876C0.77 0.690875 1.14 0.546875 1.56 0.546875C2 0.546875 2.37 0.690875 2.67 0.978876C2.97 1.26688 3.12 1.62208 3.12 2.04448V10.6845L13.05 1.15168C13.29 0.921275 13.51 0.767675 13.71 0.690875C13.91 0.594875 14.12 0.546875 14.34 0.546875C14.84 0.546875 15.2 0.690875 15.42 0.978876C15.64 1.26688 15.72 1.61248 15.66 2.01568C15.6 2.39968 15.41 2.75488 15.09 3.08128L7.44 10.4541L15.24 20.6493C15.48 20.9757 15.58 21.3309 15.54 21.7149C15.5 22.0797 15.36 22.3965 15.12 22.6653C14.88 22.9149 14.56 23.0397 14.16 23.0397C13.6 23.0397 13.17 22.8285 12.87 22.4061L5.28 12.5277L3.12 14.6013V21.5421C3.12 21.9645 2.97 22.3197 2.67 22.6077C2.37 22.8957 2 23.0397 1.56 23.0397ZM24.7627 23.1549C23.3027 23.1549 21.9927 22.8093 20.8327 22.1181C19.6727 21.4077 18.7527 20.4573 18.0727 19.2669C17.4127 18.0573 17.0827 16.6941 17.0827 15.1773C17.0827 13.6605 17.4427 12.2973 18.1627 11.0877C18.9027 9.87808 19.8927 8.92768 21.1327 8.23648C22.3927 7.52608 23.8027 7.17088 25.3627 7.17088C26.9227 7.17088 28.3227 7.52608 29.5627 8.23648C30.8027 8.92768 31.7827 9.87808 32.5027 11.0877C33.2427 12.2973 33.6127 13.6605 33.6127 15.1773H32.4427C32.4427 16.6941 32.1027 18.0573 31.4227 19.2669C30.7627 20.4573 29.8527 21.4077 28.6927 22.1181C27.5327 22.8093 26.2227 23.1549 24.7627 23.1549ZM25.3627 20.5629C26.3827 20.5629 27.2927 20.3325 28.0927 19.8717C28.8927 19.3917 29.5227 18.7485 29.9827 17.9421C30.4427 17.1165 30.6727 16.1949 30.6727 15.1773C30.6727 14.1405 30.4427 13.2189 29.9827 12.4125C29.5227 11.5869 28.8927 10.9437 28.0927 10.4829C27.2927 10.0029 26.3827 9.76288 25.3627 9.76288C24.3627 9.76288 23.4527 10.0029 22.6327 10.4829C21.8327 10.9437 21.1927 11.5869 20.7127 12.4125C20.2527 13.2189 20.0227 14.1405 20.0227 15.1773C20.0227 16.1949 20.2527 17.1165 20.7127 17.9421C21.1927 18.7485 21.8327 19.3917 22.6327 19.8717C23.4527 20.3325 24.3627 20.5629 25.3627 20.5629ZM32.0827 23.0685C31.6427 23.0685 31.2727 22.9341 30.9727 22.6653C30.6927 22.3773 30.5527 22.0221 30.5527 21.5997V17.1933L31.1227 14.1405L33.6127 15.1773V21.5997C33.6127 22.0221 33.4627 22.3773 33.1627 22.6653C32.8827 22.9341 32.5227 23.0685 32.0827 23.0685ZM45.6068 23.1549C44.0468 23.1549 42.6368 22.8093 41.3768 22.1181C40.1368 21.4077 39.1468 20.4477 38.4068 19.2381C37.6868 18.0285 37.3268 16.6653 37.3268 15.1485C37.3268 13.6317 37.6568 12.2781 38.3168 11.0877C38.9968 9.87808 39.9168 8.92768 41.0768 8.23648C42.2368 7.52608 43.5468 7.17088 45.0068 7.17088C46.1868 7.17088 47.2768 7.41088 48.2768 7.89088C49.2768 8.35168 50.1168 8.98528 50.7968 9.79168V2.01568C50.7968 1.57408 50.9368 1.21888 51.2168 0.950075C51.5168 0.681275 51.8868 0.546875 52.3268 0.546875C52.7868 0.546875 53.1568 0.681275 53.4368 0.950075C53.7168 1.21888 53.8568 1.57408 53.8568 2.01568V15.1485C53.8568 16.6653 53.4868 18.0285 52.7468 19.2381C52.0268 20.4477 51.0468 21.4077 49.8068 22.1181C48.5668 22.8093 47.1668 23.1549 45.6068 23.1549ZM45.6068 20.5629C46.6268 20.5629 47.5368 20.3325 48.3368 19.8717C49.1368 19.3917 49.7668 18.7389 50.2268 17.9133C50.6868 17.0877 50.9168 16.1661 50.9168 15.1485C50.9168 14.1117 50.6868 13.1901 50.2268 12.3837C49.7668 11.5773 49.1368 10.9437 48.3368 10.4829C47.5368 10.0029 46.6268 9.76288 45.6068 9.76288C44.6068 9.76288 43.6968 10.0029 42.8768 10.4829C42.0768 10.9437 41.4368 11.5773 40.9568 12.3837C40.4968 13.1901 40.2668 14.1117 40.2668 15.1485C40.2668 16.1661 40.4968 17.0877 40.9568 17.9133C41.4368 18.7389 42.0768 19.3917 42.8768 19.8717C43.6968 20.3325 44.6068 20.5629 45.6068 20.5629ZM61.0905 23.0397C60.6505 23.0397 60.2805 22.9053 59.9805 22.6365C59.7005 22.3485 59.5605 21.9933 59.5605 21.5709V8.75488C59.5605 8.31328 59.7005 7.95808 59.9805 7.68928C60.2805 7.42048 60.6505 7.28608 61.0905 7.28608C61.5505 7.28608 61.9205 7.42048 62.2005 7.68928C62.4805 7.95808 62.6205 8.31328 62.6205 8.75488V21.5709C62.6205 21.9933 62.4805 22.3485 62.2005 22.6365C61.9205 22.9053 61.5505 23.0397 61.0905 23.0397ZM61.0905 4.72288C60.5505 4.72288 60.0805 4.54048 59.6805 4.17568C59.3005 3.79168 59.1105 3.34048 59.1105 2.82208C59.1105 2.30368 59.3005 1.86208 59.6805 1.49728C60.0805 1.11328 60.5505 0.921276 61.0905 0.921276C61.6305 0.921276 62.0905 1.11328 62.4705 1.49728C62.8705 1.86208 63.0705 2.30368 63.0705 2.82208C63.0705 3.34048 62.8705 3.79168 62.4705 4.17568C62.0905 4.54048 61.6305 4.72288 61.0905 4.72288ZM69.7833 13.1901C69.7833 12.0381 70.0733 11.0109 70.6533 10.1085C71.2533 9.18688 72.0533 8.45728 73.0533 7.91968C74.0533 7.38208 75.1533 7.11328 76.3533 7.11328C77.5533 7.11328 78.4433 7.30528 79.0233 7.68928C79.6233 8.05408 79.8533 8.49568 79.7133 9.01408C79.6533 9.28288 79.5333 9.49408 79.3533 9.64768C79.1933 9.78208 79.0033 9.86848 78.7833 9.90688C78.5633 9.94528 78.3233 9.93568 78.0633 9.87808C76.7833 9.62848 75.6333 9.60928 74.6133 9.82048C73.5933 10.0317 72.7833 10.4253 72.1833 11.0013C71.6033 11.5773 71.3133 12.3069 71.3133 13.1901H69.7833ZM69.8133 23.0397C69.3333 23.0397 68.9633 22.9245 68.7033 22.6941C68.4433 22.4445 68.3133 22.0797 68.3133 21.5997V8.72608C68.3133 8.26528 68.4433 7.91008 68.7033 7.66048C68.9633 7.41088 69.3333 7.28608 69.8133 7.28608C70.3133 7.28608 70.6833 7.41088 70.9233 7.66048C71.1833 7.89088 71.3133 8.24608 71.3133 8.72608V21.5997C71.3133 22.0605 71.1833 22.4157 70.9233 22.6653C70.6833 22.9149 70.3133 23.0397 69.8133 23.0397ZM89.142 23.1549C87.522 23.1549 86.092 22.8189 84.852 22.1469C83.612 21.4557 82.632 20.5149 81.912 19.3245C81.212 18.1149 80.862 16.7325 80.862 15.1773C80.862 13.6029 81.212 12.2205 81.912 11.0301C82.632 9.82048 83.612 8.87968 84.852 8.20768C86.092 7.51648 87.522 7.17088 89.142 7.17088C90.742 7.17088 92.162 7.51648 93.402 8.20768C94.642 8.87968 95.612 9.82048 96.312 11.0301C97.032 12.2205 97.392 13.6029 97.392 15.1773C97.392 16.7325 97.042 18.1149 96.342 19.3245C95.642 20.5149 94.672 21.4557 93.432 22.1469C92.192 22.8189 90.762 23.1549 89.142 23.1549ZM89.142 20.5629C90.182 20.5629 91.102 20.3325 91.902 19.8717C92.702 19.4109 93.322 18.7773 93.762 17.9709C94.222 17.1645 94.452 16.2333 94.452 15.1773C94.452 14.1213 94.222 13.1901 93.762 12.3837C93.322 11.5581 92.702 10.9149 91.902 10.4541C91.102 9.99328 90.182 9.76288 89.142 9.76288C88.102 9.76288 87.182 9.99328 86.382 10.4541C85.582 10.9149 84.952 11.5581 84.492 12.3837C84.032 13.1901 83.802 14.1213 83.802 15.1773C83.802 16.2333 84.032 17.1645 84.492 17.9709C84.952 18.7773 85.582 19.4109 86.382 19.8717C87.182 20.3325 88.102 20.5629 89.142 20.5629ZM106.588 23.0109C105.968 23.0109 105.488 22.6941 105.148 22.0605L98.7879 9.18688C98.6279 8.86048 98.6079 8.54368 98.7279 8.23648C98.8679 7.91008 99.1279 7.66048 99.5079 7.48768C99.8479 7.31488 100.188 7.28608 100.528 7.40128C100.888 7.51648 101.158 7.73728 101.338 8.06368L107.278 20.3613H105.838L111.718 8.06368C111.898 7.73728 112.168 7.51648 112.528 7.40128C112.908 7.28608 113.288 7.31488 113.668 7.48768C114.028 7.64128 114.268 7.88128 114.388 8.20768C114.508 8.53408 114.488 8.86048 114.328 9.18688L107.968 22.0605C107.668 22.6941 107.208 23.0109 106.588 23.0109ZM119.333 23.0397C118.893 23.0397 118.523 22.8957 118.223 22.6077C117.923 22.3197 117.773 21.9645 117.773 21.5421V2.04448C117.773 1.60288 117.923 1.24768 118.223 0.978876C118.523 0.690875 118.893 0.546875 119.333 0.546875H124.763C126.483 0.546875 128.043 0.825275 129.443 1.38208C130.863 1.91968 132.093 2.69728 133.133 3.71488C134.173 4.71328 134.973 5.89408 135.533 7.25728C136.093 8.62048 136.373 10.1277 136.373 11.7789C136.373 13.4301 136.093 14.9469 135.533 16.3293C134.973 17.6925 134.173 18.8829 133.133 19.9005C132.093 20.8989 130.863 21.6765 129.443 22.2333C128.043 22.7709 126.483 23.0397 124.763 23.0397H119.333ZM120.893 20.3901H124.763C126.443 20.3901 127.923 20.0253 129.203 19.2957C130.503 18.5469 131.523 17.5293 132.263 16.2429C133.003 14.9373 133.373 13.4493 133.373 11.7789C133.373 10.0893 133.003 8.60128 132.263 7.31488C131.523 6.02848 130.503 5.02048 129.203 4.29088C127.923 3.56128 126.443 3.19648 124.763 3.19648H120.893V20.3901ZM148.68 23.1549C147.02 23.1549 145.54 22.8189 144.24 22.1469C142.96 21.4557 141.95 20.5149 141.21 19.3245C140.49 18.1149 140.13 16.7325 140.13 15.1773C140.13 13.6029 140.47 12.2205 141.15 11.0301C141.85 9.82048 142.81 8.87968 144.03 8.20768C145.25 7.51648 146.65 7.17088 148.23 7.17088C149.79 7.17088 151.13 7.50688 152.25 8.17888C153.37 8.83168 154.22 9.74368 154.8 10.9149C155.4 12.0669 155.7 13.4013 155.7 14.9181C155.7 15.2829 155.57 15.5901 155.31 15.8397C155.05 16.0701 154.72 16.1853 154.32 16.1853H142.23V13.8813H154.23L153 14.6877C152.98 13.7277 152.78 12.8733 152.4 12.1245C152.02 11.3565 151.48 10.7517 150.78 10.3101C150.08 9.86848 149.23 9.64768 148.23 9.64768C147.09 9.64768 146.11 9.88768 145.29 10.3677C144.49 10.8477 143.88 11.5101 143.46 12.3549C143.04 13.1805 142.83 14.1213 142.83 15.1773C142.83 16.2333 143.08 17.1741 143.58 17.9997C144.08 18.8253 144.77 19.4781 145.65 19.9581C146.53 20.4381 147.54 20.6781 148.68 20.6781C149.3 20.6781 149.93 20.5725 150.57 20.3613C151.23 20.1309 151.76 19.8717 152.16 19.5837C152.46 19.3725 152.78 19.2669 153.12 19.2669C153.48 19.2477 153.79 19.3437 154.05 19.5549C154.39 19.8429 154.57 20.1597 154.59 20.5053C154.61 20.8509 154.45 21.1485 154.11 21.3981C153.43 21.9165 152.58 22.3389 151.56 22.6653C150.56 22.9917 149.6 23.1549 148.68 23.1549ZM164.566 23.0109C163.946 23.0109 163.466 22.6941 163.126 22.0605L156.766 9.18688C156.606 8.86048 156.586 8.54368 156.706 8.23648C156.846 7.91008 157.106 7.66048 157.486 7.48768C157.826 7.31488 158.166 7.28608 158.506 7.40128C158.866 7.51648 159.136 7.73728 159.316 8.06368L165.256 20.3613H163.816L169.696 8.06368C169.876 7.73728 170.146 7.51648 170.506 7.40128C170.886 7.28608 171.266 7.31488 171.646 7.48768C172.006 7.64128 172.246 7.88128 172.366 8.20768C172.486 8.53408 172.466 8.86048 172.306 9.18688L165.946 22.0605C165.646 22.6941 165.186 23.0109 164.566 23.0109Z" fill="#7F56D9"/>
</g>
<defs>
<clipPath id="clip0_4_412">
<rect width="173" height="24" fill="white"/>
</clipPath>
</defs>
</svg>
