<svg width="232" height="52" viewBox="0 0 232 52" fill="none" xmlns="http://www.w3.org/2000/svg">
<g clip-path="url(#clip0_4_410)">
<mask id="mask0_4_410" style="mask-type:alpha" maskUnits="userSpaceOnUse" x="5" y="7" width="39" height="45">
<path d="M28.9546 33.397V36.7464H29.697C37.0775 36.7464 43.0606 42.6179 43.0606 49.8607V51.5H5.93941V49.8607C5.93941 42.6179 11.9225 36.7464 19.303 36.7464H20.0455V33.397C16.8461 31.9055 14.5464 28.8573 14.1627 25.2498C13.0816 25.0998 12.25 24.188 12.25 23.0857V20.5357C12.25 19.4527 13.0527 18.5536 14.1061 18.3802V17.2571C14.1061 11.6238 18.7596 7.05713 24.5 7.05713C30.2404 7.05713 34.894 11.6238 34.894 17.2571V18.3802C35.9473 18.5536 36.75 19.4527 36.75 20.5357V23.0857C36.75 24.188 35.9184 25.0998 34.8373 25.2498C34.4537 28.8573 32.1539 31.9055 28.9546 33.397Z" fill="white"/>
</mask>
<g mask="url(#mask0_4_410)">
<path d="M28.9546 33.397V36.7464H29.697C37.0775 36.7464 43.0606 42.6179 43.0606 49.8607V51.5H5.93941V49.8607C5.93941 42.6179 11.9225 36.7464 19.303 36.7464H20.0455V33.397C16.8461 31.9055 14.5464 28.8573 14.1627 25.2498C13.0816 25.0998 12.25 24.188 12.25 23.0857V20.5357C12.25 19.4527 13.0527 18.5536 14.1061 18.3802V17.2571C14.1061 11.6238 18.7596 7.05713 24.5 7.05713C30.2404 7.05713 34.894 11.6238 34.894 17.2571V18.3802C35.9473 18.5536 36.75 19.4527 36.75 20.5357V23.0857C36.75 24.188 35.9184 25.0998 34.8373 25.2498C34.4537 28.8573 32.1539 31.9055 28.9546 33.397Z" fill="#D0C6AC"/>
<path d="M54.9394 7.05713H5.93941V58.0571H54.9394V7.05713Z" fill="#EDB98A"/>
<path fill-rule="evenodd" clip-rule="evenodd" d="M34.8939 21.4464V25.6357C34.8939 31.269 30.2404 35.8357 24.5 35.8357C18.7596 35.8357 14.1061 31.269 14.1061 25.6357V21.4464V24.1786C14.1061 29.8119 18.7596 34.3786 24.5 34.3786C30.2404 34.3786 34.8939 29.8119 34.8939 24.1786V21.4464Z" fill="black" fill-opacity="0.1"/>
</g>
<mask id="mask1_4_410" style="mask-type:alpha" maskUnits="userSpaceOnUse" x="5" y="36" width="39" height="16">
<path fill-rule="evenodd" clip-rule="evenodd" d="M30.7408 36.7952C37.6335 37.3178 43.0606 42.972 43.0606 49.8701V51.5H5.93941V49.8701C5.93941 42.9092 11.4659 37.2149 18.4479 36.7822C18.3999 36.9784 18.375 37.1793 18.375 37.3839C18.375 39.5467 21.1588 41.3 24.5928 41.3C28.0268 41.3 30.8106 39.5467 30.8106 37.3839C30.8106 37.1838 30.7868 36.9872 30.7408 36.7952L30.7408 36.7952Z" fill="white"/>
</mask>
<g mask="url(#mask1_4_410)">
<path fill-rule="evenodd" clip-rule="evenodd" d="M30.7408 36.7952C37.6335 37.3178 43.0606 42.972 43.0606 49.8701V51.5H5.93941V49.8701C5.93941 42.9092 11.4659 37.2149 18.4479 36.7822C18.3999 36.9784 18.375 37.1793 18.375 37.3839C18.375 39.5467 21.1588 41.3 24.5928 41.3C28.0268 41.3 30.8106 39.5467 30.8106 37.3839C30.8106 37.1838 30.7868 36.9872 30.7408 36.7952L30.7408 36.7952Z" fill="#E6E6E6"/>
<path d="M49 31.4644H0V51.5001H49V31.4644Z" fill="#25557C"/>
<path fill-rule="evenodd" clip-rule="evenodd" d="M26.5293 46.6534C25.7716 46.9048 24.9422 47.2587 24.5052 47.9418C24.1623 48.4777 24.1393 47.8589 23.6605 48.0498C23.1952 48.2354 23.3225 49.0012 23.1535 49.3797C23.022 49.1627 22.9598 48.9213 22.7942 48.7232C22.923 48.6421 23.0422 48.5332 23.131 48.4091C23.16 48.351 22.2415 48.4726 22.1888 48.4874C21.9269 48.5606 21.6804 48.6279 21.4301 48.7478C21.4963 48.6537 21.5612 48.559 21.625 48.4633C21.6826 48.3774 21.7392 48.2906 21.7947 48.2034C21.8332 48.0795 21.9018 48.0791 22.0004 48.2023C22.1394 48.2089 22.219 48.2673 22.3645 48.2346C22.9056 48.1131 23.0779 47.101 22.4109 47.1441C22.704 46.6214 22.9641 46.0908 23.2003 45.5408C23.2936 46.3224 24.3288 46.0532 24.633 45.6364C25.0303 45.092 24.521 44.0587 23.8009 44.1589C23.9087 43.9084 24.0181 43.6558 24.107 43.3979C24.3098 43.6913 24.6642 43.8334 24.9494 44.0275C25.2483 44.231 25.5012 44.472 25.722 44.7572C26.165 45.3292 26.426 46.0335 26.8755 46.5882C26.7572 46.5944 26.6418 46.6162 26.5293 46.6534ZM28.2008 45.8541C28.0834 44.8054 27.245 43.741 26.4488 43.0898C25.9756 42.7029 24.548 41.7447 23.979 42.4816C24.4378 42.6767 24.944 42.7237 25.3988 42.9349C26.0151 43.2213 26.498 43.6924 26.915 44.22C27.4973 44.9566 28.3943 46.4572 27.003 46.8402C27.0991 46.7787 27.1548 46.7111 27.2309 46.6019C27.044 46.5596 27.1195 46.26 27.0538 46.0643C26.9773 45.8365 26.8292 45.615 26.704 45.4118C26.5053 45.0892 26.287 44.7681 26.0537 44.47C25.7422 44.0718 25.3696 43.7584 24.9443 43.4872C24.7761 43.38 24.6149 43.2849 24.4216 43.2295C24.1711 43.1577 24.2531 43.2451 24.1846 43.0206C24.1416 42.8799 24.1803 42.6996 24.139 42.5485C23.7728 42.8506 23.6536 43.2871 23.4895 43.7109C23.3001 44.1997 23.0955 44.6826 22.8962 45.1674C22.407 46.3577 21.7763 47.4252 21.0603 48.491C20.9357 48.6766 20.6584 49.0283 20.858 49.2512C21.0364 49.4506 21.2906 49.3069 21.4865 49.2259C21.7531 49.1159 22.1148 48.8317 22.4025 48.9806C22.7733 49.1726 22.5981 49.8884 23.1846 49.8599C23.7625 49.8317 23.6537 48.8982 23.8392 48.527C24.2683 48.8339 24.6142 48.6435 24.8747 48.2335C25.1766 47.7584 25.5754 47.5675 26.0837 47.3342C26.2915 47.2388 26.6468 46.981 26.8633 46.9489C27.0424 46.9225 27.2146 47.1098 27.4541 47.1013C28.0291 47.0807 28.2692 46.3267 28.2008 45.8541Z" fill="white"/>
<path fill-rule="evenodd" clip-rule="evenodd" d="M24.2285 46.3697C23.7784 46.2886 23.1507 46.3562 23.1095 46.944C23.0842 47.3043 23.3711 47.6449 23.6815 47.7935C24.6322 48.2487 25.3721 46.5753 24.2285 46.3697Z" fill="white"/>
<path fill-rule="evenodd" clip-rule="evenodd" d="M26.0473 45.7002C25.9265 45.5716 25.7311 45.4744 25.5506 45.5195C25.6084 45.4804 25.6562 45.4099 25.7111 45.3666C25.1253 44.9502 24.7571 46.0002 25.09 46.4136C25.5944 47.0401 26.5817 46.274 26.0473 45.7002Z" fill="white"/>
</g>
<mask id="mask2_4_410" style="mask-type:alpha" maskUnits="userSpaceOnUse" x="20" y="27" width="9" height="4">
<path fill-rule="evenodd" clip-rule="evenodd" d="M20.9953 27.6626C21.1917 29.3915 22.6859 30.7357 24.5 30.7357C26.3197 30.7357 27.8175 29.3832 28.0064 27.6466C28.0216 27.5068 27.8625 27.275 27.6632 27.275C24.8988 27.275 22.7809 27.275 21.3608 27.275C21.1603 27.275 20.9757 27.4897 20.9953 27.6626Z" fill="white"/>
</mask>
<g mask="url(#mask2_4_410)">
<path fill-rule="evenodd" clip-rule="evenodd" d="M20.9953 27.6626C21.1917 29.3915 22.6859 30.7357 24.5 30.7357C26.3197 30.7357 27.8175 29.3832 28.0064 27.6466C28.0216 27.5068 27.8625 27.275 27.6632 27.275C24.8988 27.275 22.7809 27.275 21.3608 27.275C21.1603 27.275 20.9757 27.4897 20.9953 27.6626Z" fill="black" fill-opacity="0.7"/>
<path d="M26.5416 25.2714H22.6439C22.1313 25.2714 21.7159 25.6791 21.7159 26.1821V27.2749C21.7159 27.7779 22.1313 28.1856 22.6439 28.1856H26.5416C27.0541 28.1856 27.4696 27.7779 27.4696 27.2749V26.1821C27.4696 25.6791 27.0541 25.2714 26.5416 25.2714Z" fill="white"/>
<path d="M23.5719 33.2857C24.6995 33.2857 25.6136 32.3887 25.6136 31.2821C25.6136 30.1756 24.6995 29.2786 23.5719 29.2786C22.4443 29.2786 21.5303 30.1756 21.5303 31.2821C21.5303 32.3887 22.4443 33.2857 23.5719 33.2857Z" fill="#FF4F6D"/>
<path d="M25.428 33.2857C26.5556 33.2857 27.4696 32.3887 27.4696 31.2821C27.4696 30.1756 26.5556 29.2786 25.428 29.2786C24.3004 29.2786 23.3863 30.1756 23.3863 31.2821C23.3863 32.3887 24.3004 33.2857 25.428 33.2857Z" fill="#FF4F6D"/>
</g>
<path fill-rule="evenodd" clip-rule="evenodd" d="M22.2727 24.1786C22.2727 24.9833 23.2699 25.6357 24.5 25.6357C25.7301 25.6357 26.7273 24.9833 26.7273 24.1786" fill="black" fill-opacity="0.16"/>
<mask id="mask3_4_410" style="mask-type:alpha" maskUnits="userSpaceOnUse" x="17" y="19" width="6" height="4">
<path fill-rule="evenodd" clip-rule="evenodd" d="M19.6742 21.8195C21.4579 21.8195 22.2727 22.6303 22.2727 21.3666C22.2727 20.103 21.1093 19.2607 19.6742 19.2607C18.2391 19.2607 17.0758 20.103 17.0758 21.3666C17.0758 22.6303 17.8906 21.8195 19.6742 21.8195Z" fill="white"/>
</mask>
<g mask="url(#mask3_4_410)">
<path fill-rule="evenodd" clip-rule="evenodd" d="M19.6742 21.8195C21.4579 21.8195 22.2727 22.6303 22.2727 21.3666C22.2727 20.103 21.1093 19.2607 19.6742 19.2607C18.2391 19.2607 17.0758 20.103 17.0758 21.3666C17.0758 22.6303 17.8906 21.8195 19.6742 21.8195Z" fill="white"/>
<path d="M19.6742 22.175C20.2893 22.175 20.7879 21.6857 20.7879 21.0821C20.7879 20.4785 20.2893 19.9893 19.6742 19.9893C19.0592 19.9893 18.5606 20.4785 18.5606 21.0821C18.5606 21.6857 19.0592 22.175 19.6742 22.175Z" fill="black" fill-opacity="0.7"/>
</g>
<mask id="mask4_4_410" style="mask-type:alpha" maskUnits="userSpaceOnUse" x="26" y="19" width="6" height="4">
<path fill-rule="evenodd" clip-rule="evenodd" d="M29.3258 21.8195C31.1094 21.8195 31.9242 22.6303 31.9242 21.3666C31.9242 20.103 30.7609 19.2607 29.3258 19.2607C27.8907 19.2607 26.7273 20.103 26.7273 21.3666C26.7273 22.6303 27.5421 21.8195 29.3258 21.8195Z" fill="white"/>
</mask>
<g mask="url(#mask4_4_410)">
<path fill-rule="evenodd" clip-rule="evenodd" d="M29.3258 21.8195C31.1094 21.8195 31.9242 22.6303 31.9242 21.3666C31.9242 20.103 30.7609 19.2607 29.3258 19.2607C27.8907 19.2607 26.7273 20.103 26.7273 21.3666C26.7273 22.6303 27.5421 21.8195 29.3258 21.8195Z" fill="white"/>
<path d="M29.3257 22.175C29.9408 22.175 30.4394 21.6857 30.4394 21.0821C30.4394 20.4785 29.9408 19.9893 29.3257 19.9893C28.7107 19.9893 28.2121 20.4785 28.2121 21.0821C28.2121 21.6857 28.7107 22.175 29.3257 22.175Z" fill="black" fill-opacity="0.7"/>
</g>
<path fill-rule="evenodd" clip-rule="evenodd" d="M21.2815 17.4559C20.3539 17.5218 19.4398 17.4714 18.5127 17.4336C17.8019 17.4047 17.0803 17.3094 16.4017 17.6178C16.2717 17.6768 15.5609 18.0329 15.5774 18.2278C15.5906 18.3836 16.3079 18.627 16.437 18.6715C17.118 18.9065 17.7698 18.8347 18.4701 18.7935C19.3291 18.743 20.1842 18.7801 21.0428 18.7548C21.621 18.7378 22.5122 18.6417 22.7979 17.9537C22.884 17.7465 22.8174 17.332 22.7312 17.1054C22.6968 17.0151 22.5974 16.9811 22.5223 17.0331C22.2533 17.2194 21.7314 17.424 21.2815 17.4559Z" fill="black" fill-opacity="0.6"/>
<path fill-rule="evenodd" clip-rule="evenodd" d="M27.7185 17.4559C28.6461 17.5218 29.5601 17.4714 30.4872 17.4336C31.1981 17.4047 31.9196 17.3094 32.5983 17.6178C32.7282 17.6768 33.4391 18.0329 33.4225 18.2278C33.4094 18.3836 32.692 18.627 32.5629 18.6715C31.882 18.9065 31.2301 18.8347 30.5298 18.7935C29.6709 18.743 28.8158 18.7801 27.9572 18.7548C27.379 18.7378 26.4878 18.6417 26.202 17.9537C26.116 17.7465 26.1825 17.332 26.2688 17.1054C26.3032 17.0151 26.4025 16.9811 26.4777 17.0331C26.7467 17.2194 27.2686 17.424 27.7185 17.4559Z" fill="black" fill-opacity="0.6"/>
<mask id="mask5_4_410" style="mask-type:alpha" maskUnits="userSpaceOnUse" x="0" y="0" width="49" height="52">
<path d="M49 0.5H0V51.5H49V0.5Z" fill="white"/>
</mask>
<g mask="url(#mask5_4_410)">
<mask id="mask6_4_410" style="mask-type:alpha" maskUnits="userSpaceOnUse" x="13" y="18" width="23" height="17">
<path fill-rule="evenodd" clip-rule="evenodd" d="M27.7348 31.495C27.2683 31.9128 26.7713 32.1007 26.1432 31.9693C26.0351 31.9467 25.5944 31.1427 24.5 31.1427C23.4056 31.1427 22.9649 31.9467 22.8568 31.9693C22.2286 32.1007 21.7317 31.9128 21.2651 31.495C20.3881 30.7094 19.6588 29.6261 20.097 28.4442C20.3254 27.8281 20.6969 27.1518 21.3727 26.9555C22.0943 26.7459 23.1074 26.9551 23.8346 26.812C24.0702 26.7656 24.3275 26.6832 24.5 26.5464C24.6724 26.6832 24.9299 26.7656 25.1653 26.812C25.8926 26.9551 26.9057 26.7459 27.6273 26.9555C28.3031 27.1518 28.6745 27.8281 28.903 28.4442C29.3412 29.6261 28.6119 30.7094 27.7348 31.495ZM34.909 18.35C34.276 19.88 34.5205 21.7848 34.4033 23.3909C34.3082 24.6964 34.0285 26.6531 32.8472 27.4962C32.2432 27.9273 31.1437 28.652 30.3544 28.4498C29.811 28.3107 29.7531 26.7814 29.0391 26.2089C28.2292 25.5596 27.2178 25.2743 26.1981 25.3184C25.7581 25.3374 24.8683 25.3329 24.5 25.6649C24.1317 25.3329 23.2419 25.3374 22.8019 25.3184C21.7822 25.2743 20.7708 25.5596 19.9609 26.2089C19.2469 26.7814 19.189 28.3107 18.6457 28.4498C17.8564 28.652 16.7569 27.9273 16.1527 27.4962C14.9714 26.6531 14.6919 24.6964 14.5966 23.3909C14.4795 21.7848 14.724 19.88 14.091 18.35C13.7831 18.35 13.9862 21.2877 13.9862 21.2877V24.9955C13.992 27.7801 15.7645 31.9479 19.6943 33.5394C20.6554 33.9286 22.8324 34.5607 24.5 34.5607C26.1676 34.5607 28.3446 33.9888 29.3057 33.5996C33.2355 32.0081 35.0079 27.7801 35.0139 24.9955V21.2877C35.0139 21.2877 35.2169 18.35 34.909 18.35Z" fill="white"/>
</mask>
<g mask="url(#mask6_4_410)">
<path fill-rule="evenodd" clip-rule="evenodd" d="M27.7348 31.495C27.2683 31.9128 26.7713 32.1007 26.1432 31.9693C26.0351 31.9467 25.5944 31.1427 24.5 31.1427C23.4056 31.1427 22.9649 31.9467 22.8568 31.9693C22.2286 32.1007 21.7317 31.9128 21.2651 31.495C20.3881 30.7094 19.6588 29.6261 20.097 28.4442C20.3254 27.8281 20.6969 27.1518 21.3727 26.9555C22.0943 26.7459 23.1074 26.9551 23.8346 26.812C24.0702 26.7656 24.3275 26.6832 24.5 26.5464C24.6724 26.6832 24.9299 26.7656 25.1653 26.812C25.8926 26.9551 26.9057 26.7459 27.6273 26.9555C28.3031 27.1518 28.6745 27.8281 28.903 28.4442C29.3412 29.6261 28.6119 30.7094 27.7348 31.495ZM34.909 18.35C34.276 19.88 34.5205 21.7848 34.4033 23.3909C34.3082 24.6964 34.0285 26.6531 32.8472 27.4962C32.2432 27.9273 31.1437 28.652 30.3544 28.4498C29.811 28.3107 29.7531 26.7814 29.0391 26.2089C28.2292 25.5596 27.2178 25.2743 26.1981 25.3184C25.7581 25.3374 24.8683 25.3329 24.5 25.6649C24.1317 25.3329 23.2419 25.3374 22.8019 25.3184C21.7822 25.2743 20.7708 25.5596 19.9609 26.2089C19.2469 26.7814 19.189 28.3107 18.6457 28.4498C17.8564 28.652 16.7569 27.9273 16.1527 27.4962C14.9714 26.6531 14.6919 24.6964 14.5966 23.3909C14.4795 21.7848 14.724 19.88 14.091 18.35C13.7831 18.35 13.9862 21.2877 13.9862 21.2877V24.9955C13.992 27.7801 15.7645 31.9479 19.6943 33.5394C20.6554 33.9286 22.8324 34.5607 24.5 34.5607C26.1676 34.5607 28.3446 33.9888 29.3057 33.5996C33.2355 32.0081 35.0079 27.7801 35.0139 24.9955V21.2877C35.0139 21.2877 35.2169 18.35 34.909 18.35Z" fill="#331B0C"/>
<path d="M51.9697 13.6143H2.9697V58.0571H51.9697V13.6143Z" fill="#724133"/>
</g>
<mask id="mask7_4_410" style="mask-type:alpha" maskUnits="userSpaceOnUse" x="2" y="3" width="46" height="48">
<path fill-rule="evenodd" clip-rule="evenodd" d="M18.6939 36.7598C18.8958 36.7509 19.0989 36.7464 19.303 36.7464H20.0454V33.397C17.8606 32.3784 16.0953 30.6339 15.0732 28.4811C14.5602 26.9132 14.5907 25.2144 14.4774 23.6005C14.328 21.473 14.4566 19.397 14.9481 17.3022C15.3916 15.4124 16.0291 14.3987 17.4772 12.8843C18.2863 12.0381 19.5012 11.9892 20.7104 11.6889C21.9342 11.3848 23.0512 10.922 23.8165 10.0513C25.5024 11.9477 30.0072 11.2652 31.6559 13.3318C33.6607 15.845 33.6831 17.4666 33.919 20.3703C34.0958 22.5471 33.8209 26.4838 33.7438 28.8469C32.7011 30.8314 31.0142 32.4368 28.9545 33.397V36.7464H29.6969C30.9286 36.7464 32.1213 36.9099 33.2538 37.216C32.8732 37.7941 32.4196 38.3415 31.945 38.8504C31.2339 39.6131 30.5193 40.4021 29.7176 41.1029C28.8006 41.9046 27.9233 42.4866 27.3665 43.4857C27.1145 43.9379 26.6729 44.4135 27.1402 44.9095C27.567 45.3625 28.2398 45.2692 28.6965 44.9415C29.3716 44.457 29.8728 43.6922 30.495 43.1354C29.8941 44.1946 29.0581 45.7736 29.4873 46.9613C29.6333 47.3651 29.7815 47.3571 30.0072 47.6263C30.3635 47.6341 30.5044 47.7923 30.4298 48.1008C30.4632 48.189 30.4966 48.277 30.5301 48.3651C30.8003 48.8376 31.3174 49.1685 31.9741 48.9458C34.1197 48.2183 31.6446 44.9457 34.0069 43.9729C34.4296 44.4883 33.8053 45.9362 33.7885 46.5695C33.7678 47.3504 33.8111 49.1218 35.0212 49.3343C36.5982 49.6112 35.9899 48.1327 36.0522 47.5038C36.1245 46.7722 36.5831 45.8076 36.9563 45.1598C36.7293 45.8482 36.3051 47.3735 37.479 47.6861C38.8371 48.0478 38.682 46.4866 38.8881 45.8372C38.9306 46.7981 40.1958 49.0702 41.339 47.2755C41.9281 46.3509 41.5263 44.8274 41.4617 43.8415C42.2809 44.672 42.9354 43.5954 42.9166 42.9981C43.228 43.8637 44.3983 46.2771 45.4354 44.3614C46.066 43.1966 45.3934 41.632 44.9745 40.5074C46.0777 40.6021 45.8561 39.5536 45.6918 39.0329C45.4492 38.2639 45.5787 38.1511 45.6286 37.3561C47.1599 38.2312 47.1129 35.8564 47.0284 35.2739C46.8158 33.8073 45.6533 32.494 44.7561 31.2571C44.1128 30.3699 42.9121 28.8251 43.2641 27.7553C43.6273 28.2048 44.4719 28.2001 44.8077 27.7294C45.092 27.3309 44.7907 26.6738 44.6535 26.2755C44.2784 25.1863 43.5289 24.4825 42.8512 23.5469C41.5319 21.7253 41.7217 19.3334 41.5997 17.297C41.4476 14.7564 40.8918 12.2553 38.5408 10.4071C37.2812 9.41688 35.746 8.60139 34.5744 7.55077C34.2549 7.26427 34.1198 6.90933 33.8199 6.63315C33.4832 6.32321 33.3261 6.3966 33.0481 5.95538C32.5528 5.16954 31.9711 4.43373 30.7742 4.39682C29.9911 4.37279 29.0007 5.02133 28.2949 4.92655C27.7155 4.84886 27.3494 4.038 26.8739 3.76587C26.1378 3.34462 25.6241 3.50818 24.8374 3.75216C23.6664 4.11528 22.9201 4.24185 21.7276 3.80781C20.916 3.51239 20.1502 2.89581 19.192 3.11501C18.4404 3.28708 18.1046 3.88236 17.662 4.33861C17.2051 4.80964 17.4259 4.65392 16.7581 4.75853C16.075 4.86562 15.5356 4.9628 15.0174 5.40179C14.1799 6.11135 14.7601 7.21498 14.098 7.84048C13.7407 8.17817 12.9965 8.33901 12.5826 8.68817C12.1309 9.06929 11.7614 9.53247 11.4229 9.98335C10.7638 10.8618 10.3137 11.819 9.83046 12.7666C8.93147 14.53 8.13003 16.3495 7.78842 18.244C7.61298 19.2178 7.31729 20.1704 7.1366 21.1423C6.99728 21.8917 7.0567 22.7126 6.78461 23.4403C6.46177 24.3036 5.68979 25.097 5.27162 25.9461C4.71705 27.0723 4.34457 28.1527 4.22664 29.3651C4.11082 30.5571 4.43315 31.6075 4.5753 32.7761C4.65762 33.4531 4.51527 33.53 4.04081 34.1689C3.6757 34.6607 3.30585 35.1476 3.07109 35.695C2.63274 36.7176 2.65705 37.7126 3.41975 38.6116C3.94315 39.2286 5.7025 39.8744 5.55844 38.4991C5.49155 37.8601 4.67286 37.5711 4.82923 36.838C4.93748 36.3303 5.46481 35.979 6.10494 35.822C6.55711 35.7112 6.77976 35.7161 6.98376 36.2026C7.16868 36.6436 6.92353 37.6064 6.86673 38.0698C6.84393 38.2561 6.81023 38.4193 6.78733 38.5918C6.62622 39.8076 6.59656 40.9261 5.9184 42.0425C5.50184 42.7284 4.68678 43.695 5.61614 44.3561C6.351 44.879 7.61894 44.5603 8.19187 44.0133C8.79628 44.7468 8.6619 45.5476 8.43581 46.3573C8.29548 46.86 7.91171 47.5962 8.51581 48.0026C9.3339 48.553 10.6693 47.6861 11.2827 47.2487C11.6373 48.0259 11.9701 50.8599 13.3681 49.1706C13.7761 48.6778 14.4553 48.1972 14.5846 47.6162C14.7992 46.6526 14.6452 45.6384 14.734 44.665C15.1802 45.9396 15.4834 46.4477 15.7565 47.756C15.9208 48.5431 15.9851 51.1839 17.6449 50.836C18.922 50.5684 18.1053 48.9192 17.9421 48.2469C17.6297 46.9593 17.4789 46.4141 17.177 45.1249C17.6471 45.9675 18.0579 46.8319 18.5096 47.6812C18.9533 48.5153 20.9371 50.2361 21.5174 49.5116C22.0978 48.7872 20.683 47.7549 20.3612 46.8778C19.6914 45.0521 18.8798 43.234 18.6875 41.3212C18.5949 40.4015 18.7685 39.5522 18.8445 38.6431C18.8965 38.0221 18.8183 37.3859 18.6939 36.7598Z" fill="white"/>
</mask>
<g mask="url(#mask7_4_410)">
<path fill-rule="evenodd" clip-rule="evenodd" d="M18.6939 36.7598C18.8958 36.7509 19.0989 36.7464 19.303 36.7464H20.0454V33.397C17.8606 32.3784 16.0953 30.6339 15.0732 28.4811C14.5602 26.9132 14.5907 25.2144 14.4774 23.6005C14.328 21.473 14.4566 19.397 14.9481 17.3022C15.3916 15.4124 16.0291 14.3987 17.4772 12.8843C18.2863 12.0381 19.5012 11.9892 20.7104 11.6889C21.9342 11.3848 23.0512 10.922 23.8165 10.0513C25.5024 11.9477 30.0072 11.2652 31.6559 13.3318C33.6607 15.845 33.6831 17.4666 33.919 20.3703C34.0958 22.5471 33.8209 26.4838 33.7438 28.8469C32.7011 30.8314 31.0142 32.4368 28.9545 33.397V36.7464H29.6969C30.9286 36.7464 32.1213 36.9099 33.2538 37.216C32.8732 37.7941 32.4196 38.3415 31.945 38.8504C31.2339 39.6131 30.5193 40.4021 29.7176 41.1029C28.8006 41.9046 27.9233 42.4866 27.3665 43.4857C27.1145 43.9379 26.6729 44.4135 27.1402 44.9095C27.567 45.3625 28.2398 45.2692 28.6965 44.9415C29.3716 44.457 29.8728 43.6922 30.495 43.1354C29.8941 44.1946 29.0581 45.7736 29.4873 46.9613C29.6333 47.3651 29.7815 47.3571 30.0072 47.6263C30.3635 47.6341 30.5044 47.7923 30.4298 48.1008C30.4632 48.189 30.4966 48.277 30.5301 48.3651C30.8003 48.8376 31.3174 49.1685 31.9741 48.9458C34.1197 48.2183 31.6446 44.9457 34.0069 43.9729C34.4296 44.4883 33.8053 45.9362 33.7885 46.5695C33.7678 47.3504 33.8111 49.1218 35.0212 49.3343C36.5982 49.6112 35.9899 48.1327 36.0522 47.5038C36.1245 46.7722 36.5831 45.8076 36.9563 45.1598C36.7293 45.8482 36.3051 47.3735 37.479 47.6861C38.8371 48.0478 38.682 46.4866 38.8881 45.8372C38.9306 46.7981 40.1958 49.0702 41.339 47.2755C41.9281 46.3509 41.5263 44.8274 41.4617 43.8415C42.2809 44.672 42.9354 43.5954 42.9166 42.9981C43.228 43.8637 44.3983 46.2771 45.4354 44.3614C46.066 43.1966 45.3934 41.632 44.9745 40.5074C46.0777 40.6021 45.8561 39.5536 45.6918 39.0329C45.4492 38.2639 45.5787 38.1511 45.6286 37.3561C47.1599 38.2312 47.1129 35.8564 47.0284 35.2739C46.8158 33.8073 45.6533 32.494 44.7561 31.2571C44.1128 30.3699 42.9121 28.8251 43.2641 27.7553C43.6273 28.2048 44.4719 28.2001 44.8077 27.7294C45.092 27.3309 44.7907 26.6738 44.6535 26.2755C44.2784 25.1863 43.5289 24.4825 42.8512 23.5469C41.5319 21.7253 41.7217 19.3334 41.5997 17.297C41.4476 14.7564 40.8918 12.2553 38.5408 10.4071C37.2812 9.41688 35.746 8.60139 34.5744 7.55077C34.2549 7.26427 34.1198 6.90933 33.8199 6.63315C33.4832 6.32321 33.3261 6.3966 33.0481 5.95538C32.5528 5.16954 31.9711 4.43373 30.7742 4.39682C29.9911 4.37279 29.0007 5.02133 28.2949 4.92655C27.7155 4.84886 27.3494 4.038 26.8739 3.76587C26.1378 3.34462 25.6241 3.50818 24.8374 3.75216C23.6664 4.11528 22.9201 4.24185 21.7276 3.80781C20.916 3.51239 20.1502 2.89581 19.192 3.11501C18.4404 3.28708 18.1046 3.88236 17.662 4.33861C17.2051 4.80964 17.4259 4.65392 16.7581 4.75853C16.075 4.86562 15.5356 4.9628 15.0174 5.40179C14.1799 6.11135 14.7601 7.21498 14.098 7.84048C13.7407 8.17817 12.9965 8.33901 12.5826 8.68817C12.1309 9.06929 11.7614 9.53247 11.4229 9.98335C10.7638 10.8618 10.3137 11.819 9.83046 12.7666C8.93147 14.53 8.13003 16.3495 7.78842 18.244C7.61298 19.2178 7.31729 20.1704 7.1366 21.1423C6.99728 21.8917 7.0567 22.7126 6.78461 23.4403C6.46177 24.3036 5.68979 25.097 5.27162 25.9461C4.71705 27.0723 4.34457 28.1527 4.22664 29.3651C4.11082 30.5571 4.43315 31.6075 4.5753 32.7761C4.65762 33.4531 4.51527 33.53 4.04081 34.1689C3.6757 34.6607 3.30585 35.1476 3.07109 35.695C2.63274 36.7176 2.65705 37.7126 3.41975 38.6116C3.94315 39.2286 5.7025 39.8744 5.55844 38.4991C5.49155 37.8601 4.67286 37.5711 4.82923 36.838C4.93748 36.3303 5.46481 35.979 6.10494 35.822C6.55711 35.7112 6.77976 35.7161 6.98376 36.2026C7.16868 36.6436 6.92353 37.6064 6.86673 38.0698C6.84393 38.2561 6.81023 38.4193 6.78733 38.5918C6.62622 39.8076 6.59656 40.9261 5.9184 42.0425C5.50184 42.7284 4.68678 43.695 5.61614 44.3561C6.351 44.879 7.61894 44.5603 8.19187 44.0133C8.79628 44.7468 8.6619 45.5476 8.43581 46.3573C8.29548 46.86 7.91171 47.5962 8.51581 48.0026C9.3339 48.553 10.6693 47.6861 11.2827 47.2487C11.6373 48.0259 11.9701 50.8599 13.3681 49.1706C13.7761 48.6778 14.4553 48.1972 14.5846 47.6162C14.7992 46.6526 14.6452 45.6384 14.734 44.665C15.1802 45.9396 15.4834 46.4477 15.7565 47.756C15.9208 48.5431 15.9851 51.1839 17.6449 50.836C18.922 50.5684 18.1053 48.9192 17.9421 48.2469C17.6297 46.9593 17.4789 46.4141 17.177 45.1249C17.6471 45.9675 18.0579 46.8319 18.5096 47.6812C18.9533 48.5153 20.9371 50.2361 21.5174 49.5116C22.0978 48.7872 20.683 47.7549 20.3612 46.8778C19.6914 45.0521 18.8798 43.234 18.6875 41.3212C18.5949 40.4015 18.7685 39.5522 18.8445 38.6431C18.8965 38.0221 18.8183 37.3859 18.6939 36.7598Z" fill="#8D5A5A"/>
<path d="M51.7841 3.04993H2.78409V54.0499H51.7841V3.04993Z" fill="#4A312C"/>
<path fill-rule="evenodd" clip-rule="evenodd" d="M18.6939 36.7598C18.8958 36.7509 19.0989 36.7464 19.303 36.7464H20.0454V33.397C17.8606 32.3784 16.0953 30.6339 15.0732 28.4811C15.1721 28.7832 15.2911 29.0804 15.4353 29.3713C16.5035 31.5265 17.8958 33.4534 18.4655 35.761C18.5463 36.0883 18.6268 36.4226 18.6939 36.7598ZM33.2538 37.216C32.1213 36.9099 30.9286 36.7464 29.6969 36.7464H28.9545V33.397C30.9778 32.4538 32.6412 30.888 33.6878 28.9519C33.6735 29.4972 33.686 30.0397 33.757 30.5637C33.9557 32.0289 34.4997 33.3524 34.2472 34.8587C34.109 35.6841 33.7413 36.4753 33.2538 37.216Z" fill="black" fill-opacity="0.24"/>
<path fill-rule="evenodd" clip-rule="evenodd" d="M11.9457 22.7666C11.9225 22.3254 11.5782 20.8474 12.0065 20.592C12.4761 20.3119 12.3782 21.9957 12.3831 22.1682C12.3911 22.4482 12.6078 24.5607 12.2109 24.5513C11.8153 24.542 11.9609 23.0544 11.9457 22.7666ZM13.5112 33.2854C13.5096 33.47 13.3121 33.4589 13.1712 33.4105C12.9972 33.3509 13.1037 32.9581 13.0945 32.8293C13.0703 32.4907 12.9046 31.4928 13.1577 31.2132C13.6635 30.6543 13.5132 33.0252 13.5112 33.2854ZM8.74592 35.6829C9.10397 35.673 8.77256 28.7921 8.22222 28.7997C7.83573 28.8051 8.47494 35.6896 8.74592 35.6829ZM9.1602 39.2082C8.71519 39.2082 8.79701 40.7496 9.05911 40.8728C9.4563 41.0595 9.65797 39.2082 9.1602 39.2082ZM11.9882 39.8528C11.9922 40.0455 11.7695 40.0485 11.6209 39.9883C11.4522 39.9199 11.5228 39.3498 11.5162 39.2233C11.4952 38.8249 11.1419 37.2794 11.4632 36.9955C11.8296 36.6718 11.8376 37.027 11.9362 37.2684C12.2264 37.9793 11.9726 39.0957 11.9882 39.8528ZM38.0942 25.3321C38.1146 25.5984 38.2925 27.3388 37.9968 27.4715C37.4879 27.6999 37.7071 26.6245 37.7091 26.4856C37.729 25.131 37.5293 23.7877 37.3775 22.4403C37.3486 22.1845 36.8902 20.2136 37.226 20.0503C37.7285 19.806 37.6535 20.4593 37.6823 20.6714C37.8918 22.2139 37.9844 23.7823 38.0942 25.3321ZM37.4967 31.389C37.0266 31.2977 36.7807 32.8632 36.9952 33.0312C37.351 33.3099 37.988 31.4849 37.4967 31.389ZM37.4469 38.2737C37.2355 38.2324 35.696 41.1392 35.8227 41.3036C36.064 41.6166 38.204 38.422 37.4469 38.2737ZM33.6564 39.6167C33.3258 39.4706 31.924 41.575 32.2818 41.733C32.6063 41.8762 34.0565 39.7928 33.6564 39.6167ZM41.4691 31.7278C41.0698 31.7278 41.0876 33.8811 41.3948 34.017C41.7124 34.1574 41.9409 31.7278 41.4691 31.7278ZM35.8478 11.9464C35.735 11.788 34.5161 10.3763 35.3891 10.578C35.8143 10.6762 36.4003 11.9173 36.5921 12.2921C36.7023 12.5075 37.3316 13.4686 36.6648 13.4006C36.4834 13.3822 35.9986 12.1582 35.8478 11.9464ZM31.5619 9.1256C31.4048 9.19497 31.4074 9.26006 31.5697 9.32079C31.7269 9.25143 31.7242 9.18642 31.5619 9.1256ZM15.8913 10.6064C15.5192 10.9421 14.1201 12.8865 13.6407 12.906C12.7671 12.9415 14.4348 11.2622 14.6239 11.0485C14.7084 10.9527 15.0853 10.4854 15.3147 10.3705C15.5487 10.2533 16.3251 10.214 15.8913 10.6064ZM10.8123 15.7964C10.4071 15.7183 9.72925 17.6661 9.96573 17.9012C10.3228 18.2563 11.2664 15.8848 10.8123 15.7964ZM15.4411 37.4736C15.5176 37.7178 16.3007 39.4916 16.1039 39.725C15.8029 40.0815 15.7166 39.5762 15.6181 39.3667C15.3995 38.9012 14.8315 37.7555 14.9228 37.2655C15.0115 36.7904 15.3637 37.2288 15.4411 37.4736ZM13.9179 41.6308C13.4919 41.6308 13.5411 43.4161 13.7947 43.5222C14.1875 43.6865 14.4404 41.6308 13.9179 41.6308ZM43.9498 40.1063C43.9751 40.2162 44.3311 41.1195 43.8268 40.9886C43.5369 40.9134 43.4922 40.1171 43.4182 39.8757C43.19 39.1315 42.4381 38.2068 42.3729 37.4725C42.3098 36.7628 42.7145 37.0333 43.0253 37.6344C43.4403 38.4372 43.7516 39.2502 43.9498 40.1063ZM40.293 40.016C39.8973 40.0143 39.8782 41.9783 40.1256 42.0928C40.4716 42.2528 40.7977 40.016 40.293 40.016ZM41.4364 23.9334C41.73 23.8583 40.8036 21.5063 40.4754 21.5322C39.9753 21.5718 40.9906 24.0462 41.4364 23.9334ZM36.4593 34.1503C36.3021 34.2196 36.3049 34.2847 36.4672 34.3455C36.6243 34.2761 36.6217 34.211 36.4593 34.1503ZM31.9643 44.212C32.1116 44.212 32.1724 43.9891 31.9548 43.9841C31.811 43.9852 31.735 44.212 31.9643 44.212ZM13.6762 34.1288C13.6817 33.7811 13.2179 34.036 13.2208 34.3294C13.2269 34.9147 13.6665 34.6474 13.6762 34.1288ZM12.5319 25.4322C12.3826 25.4322 12.3215 25.6574 12.5413 25.6628C12.6868 25.6617 12.7636 25.4322 12.5319 25.4322ZM8.9808 36.8179C8.96637 36.4643 8.66522 36.8258 8.68207 36.8263C8.73554 36.8276 8.9921 37.0844 8.9808 36.8179ZM9.76276 18.3615C9.3233 18.3615 9.38706 19.4094 9.66753 19.4767C10.1352 19.5889 10.1992 18.3615 9.76276 18.3615ZM12.1039 40.995C11.6797 40.995 11.651 42.4183 11.9438 42.5068C12.3987 42.6441 12.5457 40.995 12.1039 40.995ZM8.62262 42.0162C8.4608 42.0874 8.46342 42.1545 8.63049 42.2171C8.79241 42.1459 8.78969 42.079 8.62262 42.0162ZM40.1754 42.6265C39.7448 42.6265 39.7617 44.3665 40.026 44.4841C40.3955 44.6484 40.6735 42.6265 40.1754 42.6265ZM35.8118 44.2437C35.3644 44.1559 35.13 45.5925 35.3386 45.7537C35.6824 46.0194 36.2714 44.3337 35.8118 44.2437ZM32.0105 45.5714C31.6398 45.5714 31.7309 46.2225 31.9448 46.3194C32.3149 46.4871 32.4243 45.5714 32.0105 45.5714ZM18.8352 6.60339C18.525 6.60339 16.5782 7.46751 17.3057 7.72352C17.7505 7.88001 19.6254 6.60339 18.8352 6.60339Z" fill="white" fill-opacity="0.3"/>
</g>
</g>
</g>
<g clip-path="url(#clip1_4_410)">
<path d="M60.56 37.0397C60.14 37.0397 59.77 36.8957 59.45 36.6077C59.15 36.3197 59 35.9645 59 35.5421V16.0445C59 15.6221 59.15 15.2669 59.45 14.9789C59.77 14.6909 60.14 14.5469 60.56 14.5469C61 14.5469 61.37 14.6909 61.67 14.9789C61.97 15.2669 62.12 15.6221 62.12 16.0445V24.6845L72.05 15.1517C72.29 14.9213 72.51 14.7677 72.71 14.6909C72.91 14.5949 73.12 14.5469 73.34 14.5469C73.84 14.5469 74.2 14.6909 74.42 14.9789C74.64 15.2669 74.72 15.6125 74.66 16.0157C74.6 16.3997 74.41 16.7549 74.09 17.0813L66.44 24.4541L74.24 34.6493C74.48 34.9757 74.58 35.3309 74.54 35.7149C74.5 36.0797 74.36 36.3965 74.12 36.6653C73.88 36.9149 73.56 37.0397 73.16 37.0397C72.6 37.0397 72.17 36.8285 71.87 36.4061L64.28 26.5277L62.12 28.6013V35.5421C62.12 35.9645 61.97 36.3197 61.67 36.6077C61.37 36.8957 61 37.0397 60.56 37.0397ZM83.7627 37.1549C82.3027 37.1549 80.9927 36.8093 79.8327 36.1181C78.6727 35.4077 77.7527 34.4573 77.0727 33.2669C76.4127 32.0573 76.0827 30.6941 76.0827 29.1773C76.0827 27.6605 76.4427 26.2973 77.1627 25.0877C77.9027 23.8781 78.8927 22.9277 80.1327 22.2365C81.3927 21.5261 82.8027 21.1709 84.3627 21.1709C85.9227 21.1709 87.3227 21.5261 88.5627 22.2365C89.8027 22.9277 90.7827 23.8781 91.5027 25.0877C92.2427 26.2973 92.6127 27.6605 92.6127 29.1773H91.4427C91.4427 30.6941 91.1027 32.0573 90.4227 33.2669C89.7627 34.4573 88.8527 35.4077 87.6927 36.1181C86.5327 36.8093 85.2227 37.1549 83.7627 37.1549ZM84.3627 34.5629C85.3827 34.5629 86.2927 34.3325 87.0927 33.8717C87.8927 33.3917 88.5227 32.7485 88.9827 31.9421C89.4427 31.1165 89.6727 30.1949 89.6727 29.1773C89.6727 28.1405 89.4427 27.2189 88.9827 26.4125C88.5227 25.5869 87.8927 24.9437 87.0927 24.4829C86.2927 24.0029 85.3827 23.7629 84.3627 23.7629C83.3627 23.7629 82.4527 24.0029 81.6327 24.4829C80.8327 24.9437 80.1927 25.5869 79.7127 26.4125C79.2527 27.2189 79.0227 28.1405 79.0227 29.1773C79.0227 30.1949 79.2527 31.1165 79.7127 31.9421C80.1927 32.7485 80.8327 33.3917 81.6327 33.8717C82.4527 34.3325 83.3627 34.5629 84.3627 34.5629ZM91.0827 37.0685C90.6427 37.0685 90.2727 36.9341 89.9727 36.6653C89.6927 36.3773 89.5527 36.0221 89.5527 35.5997V31.1933L90.1227 28.1405L92.6127 29.1773V35.5997C92.6127 36.0221 92.4627 36.3773 92.1627 36.6653C91.8827 36.9341 91.5227 37.0685 91.0827 37.0685ZM104.607 37.1549C103.047 37.1549 101.637 36.8093 100.377 36.1181C99.1368 35.4077 98.1468 34.4477 97.4068 33.2381C96.6868 32.0285 96.3268 30.6653 96.3268 29.1485C96.3268 27.6317 96.6568 26.2781 97.3168 25.0877C97.9968 23.8781 98.9168 22.9277 100.077 22.2365C101.237 21.5261 102.547 21.1709 104.007 21.1709C105.187 21.1709 106.277 21.4109 107.277 21.8909C108.277 22.3517 109.117 22.9853 109.797 23.7917V16.0157C109.797 15.5741 109.937 15.2189 110.217 14.9501C110.517 14.6813 110.887 14.5469 111.327 14.5469C111.787 14.5469 112.157 14.6813 112.437 14.9501C112.717 15.2189 112.857 15.5741 112.857 16.0157V29.1485C112.857 30.6653 112.487 32.0285 111.747 33.2381C111.027 34.4477 110.047 35.4077 108.807 36.1181C107.567 36.8093 106.167 37.1549 104.607 37.1549ZM104.607 34.5629C105.627 34.5629 106.537 34.3325 107.337 33.8717C108.137 33.3917 108.767 32.7389 109.227 31.9133C109.687 31.0877 109.917 30.1661 109.917 29.1485C109.917 28.1117 109.687 27.1901 109.227 26.3837C108.767 25.5773 108.137 24.9437 107.337 24.4829C106.537 24.0029 105.627 23.7629 104.607 23.7629C103.607 23.7629 102.697 24.0029 101.877 24.4829C101.077 24.9437 100.437 25.5773 99.9568 26.3837C99.4968 27.1901 99.2668 28.1117 99.2668 29.1485C99.2668 30.1661 99.4968 31.0877 99.9568 31.9133C100.437 32.7389 101.077 33.3917 101.877 33.8717C102.697 34.3325 103.607 34.5629 104.607 34.5629ZM120.09 37.0397C119.65 37.0397 119.28 36.9053 118.98 36.6365C118.7 36.3485 118.561 35.9933 118.561 35.5709V22.7549C118.561 22.3133 118.7 21.9581 118.98 21.6893C119.28 21.4205 119.65 21.2861 120.09 21.2861C120.55 21.2861 120.921 21.4205 121.201 21.6893C121.481 21.9581 121.62 22.3133 121.62 22.7549V35.5709C121.62 35.9933 121.481 36.3485 121.201 36.6365C120.921 36.9053 120.55 37.0397 120.09 37.0397ZM120.09 18.7229C119.55 18.7229 119.081 18.5405 118.681 18.1757C118.301 17.7917 118.111 17.3405 118.111 16.8221C118.111 16.3037 118.301 15.8621 118.681 15.4973C119.081 15.1133 119.55 14.9213 120.09 14.9213C120.63 14.9213 121.091 15.1133 121.471 15.4973C121.871 15.8621 122.07 16.3037 122.07 16.8221C122.07 17.3405 121.871 17.7917 121.471 18.1757C121.091 18.5405 120.63 18.7229 120.09 18.7229ZM128.783 27.1901C128.783 26.0381 129.073 25.0109 129.653 24.1085C130.253 23.1869 131.053 22.4573 132.053 21.9197C133.053 21.3821 134.153 21.1133 135.353 21.1133C136.553 21.1133 137.443 21.3053 138.023 21.6893C138.623 22.0541 138.853 22.4957 138.713 23.0141C138.653 23.2829 138.533 23.4941 138.353 23.6477C138.193 23.7821 138.003 23.8685 137.783 23.9069C137.563 23.9453 137.323 23.9357 137.063 23.8781C135.783 23.6285 134.633 23.6093 133.613 23.8205C132.593 24.0317 131.783 24.4253 131.183 25.0013C130.603 25.5773 130.313 26.3069 130.313 27.1901H128.783ZM128.813 37.0397C128.333 37.0397 127.963 36.9245 127.703 36.6941C127.443 36.4445 127.313 36.0797 127.313 35.5997V22.7261C127.313 22.2653 127.443 21.9101 127.703 21.6605C127.963 21.4109 128.333 21.2861 128.813 21.2861C129.313 21.2861 129.683 21.4109 129.923 21.6605C130.183 21.8909 130.313 22.2461 130.313 22.7261V35.5997C130.313 36.0605 130.183 36.4157 129.923 36.6653C129.683 36.9149 129.313 37.0397 128.813 37.0397ZM148.142 37.1549C146.522 37.1549 145.092 36.8189 143.852 36.1469C142.612 35.4557 141.632 34.5149 140.912 33.3245C140.212 32.1149 139.862 30.7325 139.862 29.1773C139.862 27.6029 140.212 26.2205 140.912 25.0301C141.632 23.8205 142.612 22.8797 143.852 22.2077C145.092 21.5165 146.522 21.1709 148.142 21.1709C149.742 21.1709 151.162 21.5165 152.402 22.2077C153.642 22.8797 154.612 23.8205 155.312 25.0301C156.032 26.2205 156.392 27.6029 156.392 29.1773C156.392 30.7325 156.042 32.1149 155.342 33.3245C154.642 34.5149 153.672 35.4557 152.432 36.1469C151.192 36.8189 149.762 37.1549 148.142 37.1549ZM148.142 34.5629C149.182 34.5629 150.102 34.3325 150.902 33.8717C151.702 33.4109 152.322 32.7773 152.762 31.9709C153.222 31.1645 153.452 30.2333 153.452 29.1773C153.452 28.1213 153.222 27.1901 152.762 26.3837C152.322 25.5581 151.702 24.9149 150.902 24.4541C150.102 23.9933 149.182 23.7629 148.142 23.7629C147.102 23.7629 146.182 23.9933 145.382 24.4541C144.582 24.9149 143.952 25.5581 143.492 26.3837C143.032 27.1901 142.802 28.1213 142.802 29.1773C142.802 30.2333 143.032 31.1645 143.492 31.9709C143.952 32.7773 144.582 33.4109 145.382 33.8717C146.182 34.3325 147.102 34.5629 148.142 34.5629ZM165.588 37.0109C164.968 37.0109 164.488 36.6941 164.148 36.0605L157.788 23.1869C157.628 22.8605 157.608 22.5437 157.728 22.2365C157.868 21.9101 158.128 21.6605 158.508 21.4877C158.848 21.3149 159.188 21.2861 159.528 21.4013C159.888 21.5165 160.158 21.7373 160.338 22.0637L166.278 34.3613H164.838L170.718 22.0637C170.898 21.7373 171.168 21.5165 171.528 21.4013C171.908 21.2861 172.288 21.3149 172.668 21.4877C173.028 21.6413 173.268 21.8813 173.388 22.2077C173.508 22.5341 173.488 22.8605 173.328 23.1869L166.968 36.0605C166.668 36.6941 166.208 37.0109 165.588 37.0109ZM178.333 37.0397C177.893 37.0397 177.523 36.8957 177.223 36.6077C176.923 36.3197 176.773 35.9645 176.773 35.5421V16.0445C176.773 15.6029 176.923 15.2477 177.223 14.9789C177.523 14.6909 177.893 14.5469 178.333 14.5469H183.763C185.483 14.5469 187.043 14.8253 188.443 15.3821C189.863 15.9197 191.093 16.6973 192.133 17.7149C193.173 18.7133 193.973 19.8941 194.533 21.2573C195.093 22.6205 195.373 24.1277 195.373 25.7789C195.373 27.4301 195.093 28.9469 194.533 30.3293C193.973 31.6925 193.173 32.8829 192.133 33.9005C191.093 34.8989 189.863 35.6765 188.443 36.2333C187.043 36.7709 185.483 37.0397 183.763 37.0397H178.333ZM179.893 34.3901H183.763C185.443 34.3901 186.923 34.0253 188.203 33.2957C189.503 32.5469 190.523 31.5293 191.263 30.2429C192.003 28.9373 192.373 27.4493 192.373 25.7789C192.373 24.0893 192.003 22.6013 191.263 21.3149C190.523 20.0285 189.503 19.0205 188.203 18.2909C186.923 17.5613 185.443 17.1965 183.763 17.1965H179.893V34.3901ZM207.68 37.1549C206.02 37.1549 204.54 36.8189 203.24 36.1469C201.96 35.4557 200.95 34.5149 200.21 33.3245C199.49 32.1149 199.13 30.7325 199.13 29.1773C199.13 27.6029 199.47 26.2205 200.15 25.0301C200.85 23.8205 201.81 22.8797 203.03 22.2077C204.25 21.5165 205.65 21.1709 207.23 21.1709C208.79 21.1709 210.13 21.5069 211.25 22.1789C212.37 22.8317 213.22 23.7437 213.8 24.9149C214.4 26.0669 214.7 27.4013 214.7 28.9181C214.7 29.2829 214.57 29.5901 214.31 29.8397C214.05 30.0701 213.72 30.1853 213.32 30.1853H201.23V27.8813H213.23L212 28.6877C211.98 27.7277 211.78 26.8733 211.4 26.1245C211.02 25.3565 210.48 24.7517 209.78 24.3101C209.08 23.8685 208.23 23.6477 207.23 23.6477C206.09 23.6477 205.11 23.8877 204.29 24.3677C203.49 24.8477 202.88 25.5101 202.46 26.3549C202.04 27.1805 201.83 28.1213 201.83 29.1773C201.83 30.2333 202.08 31.1741 202.58 31.9997C203.08 32.8253 203.77 33.4781 204.65 33.9581C205.53 34.4381 206.54 34.6781 207.68 34.6781C208.3 34.6781 208.93 34.5725 209.57 34.3613C210.23 34.1309 210.76 33.8717 211.16 33.5837C211.46 33.3725 211.78 33.2669 212.12 33.2669C212.48 33.2477 212.79 33.3437 213.05 33.5549C213.39 33.8429 213.57 34.1597 213.59 34.5053C213.61 34.8509 213.45 35.1485 213.11 35.3981C212.43 35.9165 211.58 36.3389 210.56 36.6653C209.56 36.9917 208.6 37.1549 207.68 37.1549ZM223.566 37.0109C222.946 37.0109 222.466 36.6941 222.126 36.0605L215.766 23.1869C215.606 22.8605 215.586 22.5437 215.706 22.2365C215.846 21.9101 216.106 21.6605 216.486 21.4877C216.826 21.3149 217.166 21.2861 217.506 21.4013C217.866 21.5165 218.136 21.7373 218.316 22.0637L224.256 34.3613H222.816L228.696 22.0637C228.876 21.7373 229.146 21.5165 229.506 21.4013C229.886 21.2861 230.266 21.3149 230.646 21.4877C231.006 21.6413 231.246 21.8813 231.366 22.2077C231.486 22.5341 231.466 22.8605 231.306 23.1869L224.946 36.0605C224.646 36.6941 224.186 37.0109 223.566 37.0109Z" fill="#7F56D9"/>
</g>
<defs>
<clipPath id="clip0_4_410">
<rect width="49" height="51" fill="white" transform="translate(0 0.5)"/>
</clipPath>
<clipPath id="clip1_4_410">
<rect width="173" height="24" fill="white" transform="translate(59 14)"/>
</clipPath>
</defs>
</svg>
